<svg width="355" height="259" viewBox="0 0 355 259" fill="none" xmlns="http://www.w3.org/2000/svg">
<path d="M273.92 93.0223C272.24 96.2493 270.57 99.4583 268.89 102.684C268.749 102.958 268.598 103.241 268.457 103.515C266.521 107.219 264.594 110.932 262.658 114.645C262.119 114.769 261.65 115.193 261.721 115.786C262.419 121.718 264.223 127.446 265.115 133.351C265.133 133.466 265.15 133.581 265.168 133.696C265.928 138.974 266.149 144.437 265.265 149.714C264.443 154.7 262.71 159.536 259.767 163.673C258.185 165.883 256.249 167.793 254.109 169.437C252.42 170.736 250.617 171.877 248.76 172.885C246.329 174.202 243.801 175.316 241.228 176.306C238.594 177.323 235.995 178.33 233.617 179.877C232.777 180.425 233.025 181.972 234.165 181.893C239.416 181.548 244.508 179.294 249.167 176.951C252.35 175.36 255.408 173.415 258.105 171.063C262.331 177.269 268.51 183.987 265.805 192.058C263.453 199.059 255.55 202.781 249.044 204.867C240.398 207.625 231.125 208.474 222.143 207.174C216.185 206.308 205.559 204.177 207.601 195.814C208.503 192.145 211.323 189.334 214.912 188.238C217.149 187.557 219.518 187.469 221.834 187.734C224.203 188.008 226.449 188.848 228.818 189.131C230.462 189.325 230.666 187.062 229.587 186.302C227.589 184.888 225.123 184.393 222.736 184.066C220.287 183.73 217.848 183.739 215.425 184.207C211.217 185.038 207.513 187.531 205.373 191.27C203.419 194.718 202.907 198.97 204.719 202.576C204.79 202.726 204.878 202.868 204.958 203.009C203.755 203.018 202.5 203.212 201.404 203.257C199.503 203.337 197.602 203.407 195.702 203.469C191.662 203.584 187.631 203.663 183.591 203.681C179.631 203.699 175.67 203.654 171.709 203.61C169.729 203.584 167.749 203.531 165.769 203.495C165.734 203.495 165.689 203.486 165.654 203.486C168.536 201.541 170.994 198.969 172.699 195.919C175.333 191.207 176.006 185.541 174.423 180.369C172.752 174.897 168.73 170.707 163.479 168.532C160.871 167.453 158.069 166.897 155.249 166.808C154.179 162.494 153.781 157.932 153.11 153.548C152.42 149.022 151.722 144.487 151.032 139.961C150.696 137.777 150.369 135.594 150.033 133.401C149.741 131.509 149.732 129.096 148.724 127.407C147.867 125.957 146.231 125.188 144.587 125.206C142.563 125.224 140.83 126.329 139.23 127.46C138.664 127.858 138.381 128.459 138.541 129.149C140.167 135.921 141.652 142.736 143.014 149.57C143.686 152.947 144.287 156.342 144.933 159.727C145.26 161.415 145.543 163.113 145.887 164.801C146.091 165.782 146.329 166.808 146.656 167.789C146.311 167.895 145.975 168.01 145.648 168.151C144.967 168.195 144.269 168.372 143.614 168.478C142.314 168.69 141.015 168.92 139.724 169.185C137.143 169.724 134.588 170.396 132.077 171.21C127.073 172.819 122.529 175.268 117.836 177.566C117.447 177.752 117.782 178.3 118.163 178.132C122.884 176.108 128.046 175.02 133.032 173.844C135.454 173.269 137.912 172.774 140.37 172.35C141.564 172.138 142.757 171.943 143.95 171.775C144.101 171.837 144.26 171.881 144.419 171.881C147.124 171.978 149.847 170.847 152.561 170.661C155.169 170.475 157.768 170.679 160.278 171.421C164.68 172.72 168.473 175.673 170.285 179.961C173.918 188.563 169.136 197.933 161.118 201.893C156.954 203.953 152.578 204.165 148.149 203.75C148.291 203.626 148.432 203.511 148.556 203.379C149.422 202.451 148.865 200.621 147.451 200.709C146.107 200.797 144.816 201.407 143.561 202C127.171 205.66 110.499 208.011 93.6933 207.578C92.6063 207.419 91.5273 207.242 90.4583 207.048C89.9983 206.968 89.6273 207.136 89.3883 207.402C74.4133 206.562 59.4993 202.929 46.3273 195.627C42.6763 193.602 39.1493 191.313 35.8873 188.714C34.2873 187.45 32.7223 186.15 31.2193 184.78C30.0173 183.684 28.8943 182.499 27.6213 181.518C27.6653 181.111 27.6923 180.696 27.6743 180.28C27.6393 178.927 27.3383 177.619 26.7723 176.39C26.1353 174.993 25.2253 174.189 23.9083 173.437C22.3523 172.562 20.6993 174.639 21.9893 175.93C23.0763 177.026 23.8373 178.732 23.8813 180.279C23.9253 181.994 23.3243 183.612 22.0783 184.805C19.2233 187.554 14.6353 187.271 11.4343 185.353C3.69026 180.694 1.76327 169.255 5.43127 161.493C7.28827 157.55 10.2933 154.677 13.7233 152.193C13.7503 152.334 13.7763 152.485 13.8033 152.626C14.5453 156.418 15.2003 160.335 16.3403 164.03C17.0573 166.329 20.2302 165.338 19.8762 163.058C19.3722 159.831 18.4883 156.649 17.8343 153.449C17.1623 150.249 16.5613 147.031 16.0393 143.804C15.6323 141.258 15.2793 138.694 15.0053 136.122C14.5983 132.224 14.3603 128.298 14.3603 124.373C14.3513 113.535 16.2343 102.493 21.0613 92.7073C21.6893 91.4253 22.3523 90.1703 23.0683 88.9323C26.4363 84.3263 30.4502 80.1453 35.1262 76.8473C37.5922 75.1143 40.6963 73.8773 42.7203 71.5873C44.9483 69.0593 45.0803 65.7353 45.2483 62.5353C45.9113 49.3723 48.7753 36.1383 54.6103 24.2663C57.3773 18.6443 60.7283 12.9153 65.1923 8.4603C69.0553 4.6063 74.8283 1.7243 80.2383 4.1903C85.6843 6.6743 85.4983 13.1013 83.1643 17.7423C80.3703 23.2853 74.9423 26.7503 70.6643 31.0383C65.9613 35.7503 63.1143 41.5843 62.8583 48.2943C62.6193 54.6153 64.6533 60.9713 68.8073 65.7713C68.8163 66.2573 69.1253 66.7083 69.7533 66.6993C71.7603 66.6553 73.6073 66.0633 75.5613 65.6213C77.5323 65.1883 79.5133 64.7723 81.4933 64.3743C85.4363 63.6053 89.4233 63.0663 93.4363 62.8003C101.472 62.2613 109.569 62.7653 117.481 64.2853C119.744 64.7183 121.99 65.2573 124.217 65.8503C124.712 65.9743 125.216 66.1063 125.702 66.2483C126.064 66.3453 126.427 66.4513 126.789 66.5493C126.179 67.2653 125.569 67.9813 124.968 68.7063C122.387 71.8273 119.929 75.0713 117.604 78.3863C116.473 79.9683 115.394 81.5773 114.333 83.1953C110.868 88.5173 107.544 94.1483 106.2 100.38C105.572 99.7433 104.856 99.1873 104.113 98.6913C103.645 98.3733 103.159 98.0813 102.646 97.8423C101.956 97.5243 101.293 97.2943 100.542 97.2063C99.9413 97.1263 99.2343 97.0473 98.7213 97.4453C98.0583 97.9663 98.5533 98.7363 99.0573 99.1513C99.9763 99.9113 101.019 100.459 102.072 101.025C103.194 101.626 104.255 102.342 105.316 103.049C105.449 103.137 105.599 103.19 105.749 103.217C105.679 103.836 105.634 104.455 105.616 105.082C105.386 105.038 105.156 105.003 104.935 104.967C104.166 104.852 103.406 104.737 102.637 104.64C101.956 104.56 101.267 104.428 100.586 104.445C100.241 104.454 99.8973 104.463 99.5603 104.489C98.8793 104.542 98.2433 104.958 98.1453 105.674C98.0483 106.372 98.5523 106.973 99.1883 107.186C99.5153 107.283 99.8513 107.354 100.178 107.434C100.929 107.611 101.725 107.637 102.494 107.699C103.175 107.761 103.855 107.796 104.545 107.832C104.899 107.85 105.287 107.876 105.668 107.867C105.774 109.467 106.021 111.049 106.393 112.614C106.163 112.711 105.925 112.809 105.695 112.915C105.545 112.977 105.395 113.048 105.244 113.11C105.217 113.119 105.217 113.119 105.2 113.128C105.12 113.163 105.049 113.19 104.979 113.225C104.652 113.358 104.316 113.49 103.997 113.649C103.432 113.914 102.919 114.197 102.397 114.551C102.158 114.71 101.929 114.878 101.699 115.055C101.336 115.338 101.124 115.656 100.965 116.089C100.815 116.478 101.124 116.938 101.504 117.044C102.202 117.238 102.821 117.009 103.467 116.77C104.121 116.531 104.713 116.249 105.323 115.913C105.898 115.604 106.455 115.268 107.02 114.923C107.922 117.831 109.204 120.625 110.724 123.224C114.923 130.367 120.978 136.166 126.928 141.824C128.687 143.504 131.357 140.834 129.598 139.163C120.051 130.128 108.841 119.361 109.283 105.102C109.363 102.468 109.937 99.9303 110.812 97.4823C112.183 93.6543 114.295 90.0563 116.452 86.6443C120.139 80.8013 124.187 75.2053 128.599 69.8833C131.03 66.9483 133.532 64.0753 136.148 61.2993C137.509 59.8583 138.889 58.4443 140.241 57.0033C141.585 55.5533 142.805 53.9973 144.175 52.5653C144.9 51.8143 143.91 50.3553 143.008 51.0533C140.17 53.2373 137.368 55.3413 134.831 57.8783C134.221 58.4883 133.629 59.1163 133.037 59.7343C133.435 57.9843 133.682 56.2073 134 54.4393C134.407 52.1853 134.866 49.9313 135.388 47.7033C135.909 45.4663 136.484 43.2483 137.121 41.0373C137.545 39.5523 137.961 37.7043 139.154 36.6083C140.63 35.2643 142.991 36.6613 144.547 37.2533C146.651 38.0583 148.728 38.9063 150.788 39.8173C152.848 40.7193 154.89 41.6733 156.914 42.6723C158.947 43.6803 161.157 45.3423 163.42 45.6333C164.949 45.8193 165.329 43.8213 164.551 42.8843C164.012 42.2303 163.207 41.7173 162.35 41.2663C166.177 40.4973 169.988 39.6923 173.842 39.1003C178.819 38.3403 183.867 37.9683 188.906 37.9773C189.71 37.9773 190.506 37.9953 191.31 38.0123C200 38.2773 208.619 39.8243 216.814 42.7953C221.464 44.4753 225.946 46.6233 230.145 49.1953C240.85 55.7633 249.752 65.1073 255.145 76.6263C257.249 81.1083 258.743 85.8733 259.671 90.7353C260.131 93.1573 260.387 95.5793 260.546 98.0373C260.59 98.6913 260.617 99.3543 260.643 100.008C260.732 101.873 260.802 103.739 261.05 105.586C261.218 106.788 262.933 106.55 263.242 105.586C263.817 103.792 264.073 101.882 264.126 99.9463C264.197 97.1703 263.86 94.3503 263.472 91.7073C262.941 88.0913 262.048 84.5293 260.846 81.0723C263.604 81.3553 266.433 80.8163 269.235 80.8693C271.543 80.9133 274.416 81.4703 275.804 83.5213C277.775 86.4453 275.282 90.4053 273.92 93.0223Z" fill="#F6F3D1"/>
<path d="M148.825 143.747C148.219 139.765 147.613 135.782 147.006 131.8C146.805 130.473 146.835 128.574 145.208 128.257C143.927 128.007 142.736 128.66 141.674 129.387C143.228 135.899 144.666 142.439 145.935 149.012C146.603 152.472 147.27 155.938 147.812 159.421C148.074 161.107 148.37 162.796 148.571 164.49C148.678 165.391 148.763 166.331 148.765 167.264C149.934 167.048 151.121 166.926 152.261 166.863C151.999 163.057 151.18 159.222 150.608 155.46L148.825 143.747Z" fill="#F6F3D1"/>
<path d="M215.067 209.618C212.495 208.924 209.809 207.856 207.686 206.161C207.615 206.225 207.547 206.292 207.465 206.342C206.474 206.937 205.371 206.853 204.25 206.9C203.301 206.939 202.352 206.976 201.401 207.01C199.423 207.08 197.444 207.138 195.465 207.184C191.506 207.275 187.547 207.317 183.587 207.31C179.548 207.303 175.508 207.256 171.472 207.118C169.572 207.053 167.67 206.994 165.772 206.889C164.359 206.812 162.068 206.891 160.769 206.034C160.445 206.156 160.117 206.272 159.785 206.381C159.85 206.973 159.716 207.587 159.637 208.193L159.357 210.319C159.26 211.057 159.163 211.795 159.065 212.533C158.959 213.338 158.919 214.196 158.721 214.982C158.549 215.661 157.901 216.088 157.228 216.118C156.506 216.15 155.973 215.602 155.735 214.982C155.149 213.452 154.557 211.924 153.968 210.395C153.616 209.481 153.276 208.546 153.018 207.593C150.957 207.673 148.888 207.494 146.914 207.014C145.822 210.896 144.349 214.671 142.685 218.344C137.022 230.839 130.348 242.865 122.819 254.33C131.171 254.573 139.527 254.668 147.882 254.588C164.501 254.429 181.114 253.63 197.671 252.192C213.283 250.836 228.84 248.899 244.311 246.406C234.987 234.245 225.637 222.105 216.325 209.935C215.904 209.831 215.484 209.731 215.067 209.618Z" fill="white"/>
<path d="M353.167 227.586C353.169 227.086 352.918 226.581 352.311 226.224C348.624 224.061 344.612 222.321 340.76 220.471C336.882 218.608 332.981 216.792 329.06 215.023C325.138 213.254 321.195 211.531 317.232 209.856C315.258 209.021 313.274 208.211 311.283 207.417C310.357 207.048 309.431 206.674 308.5 206.317C307.727 206.021 306.973 205.831 306.204 205.645C305.92 204.908 305.2 204.301 304.212 204.47C294.913 206.061 285.662 207.924 276.475 210.068C271.956 211.123 267.46 212.262 262.983 213.481C258.407 214.726 253.825 215.972 249.461 217.852C248.61 218.218 248.827 219.132 249.413 219.583C250.186 221.495 251.195 223.31 252.199 225.11C253.363 227.196 254.504 229.297 255.703 231.364C258.02 235.36 260.337 239.356 262.654 243.351C264.554 246.627 266.3 250.439 269.175 253.004C270.46 254.151 271.99 255.057 273.7 255.374C275.845 255.771 277.966 255.343 280.042 254.791C297.959 250.025 315.812 245.02 333.712 240.19C338.699 238.844 343.729 237.603 348.683 236.138C350.6 235.571 352.639 234.661 353.609 232.796C354.479 231.121 354.425 229.016 353.167 227.586Z" fill="white"/>
<path d="M261.721 115.785C262.419 121.717 264.223 127.445 265.115 133.35C265.92 138.734 266.167 144.321 265.265 149.713C264.443 154.699 262.71 159.535 259.767 163.672C258.185 165.882 256.249 167.792 254.109 169.436C250.193 169.374 246.303 168.446 242.864 166.527C236.667 163.079 232.406 157.024 228.773 150.942C225.776 145.903 222.974 140.307 223.548 134.473C224.167 128.126 228.649 122.875 233.29 118.516C240.097 112.125 247.735 106.644 255.956 102.215C257.795 101.234 259.253 100.421 260.65 100.014C261.799 99.6783 262.904 99.6163 264.133 99.9523C265.035 100.2 265.998 100.659 267.094 101.375C267.722 101.782 268.314 102.224 268.888 102.683C268.747 102.957 268.596 103.24 268.455 103.514C266.519 107.218 264.592 110.931 262.656 114.644C262.119 114.769 261.65 115.193 261.721 115.785Z" fill="#FAC680"/>
<path d="M273.92 93.0223C272.24 96.2493 270.57 99.4583 268.89 102.684C268.749 102.958 268.598 103.241 268.457 103.515C266.521 107.219 264.594 110.932 262.658 114.645C262.119 114.769 261.65 115.193 261.721 115.786C262.419 121.718 264.223 127.446 265.115 133.351C265.133 133.466 265.15 133.581 265.168 133.696C263.321 134.668 261.332 135.269 259.201 135.314C252.571 135.447 247.196 130.089 243.324 124.706C229.206 105.125 222.319 76.9343 228.835 53.2683C229.242 51.8013 229.675 50.4483 230.152 49.2023C240.857 55.7703 249.759 65.1143 255.152 76.6333C257.256 81.1153 258.75 85.8803 259.678 90.7423C260.138 93.1643 260.394 95.5863 260.553 98.0443C260.597 98.6983 260.624 99.3613 260.65 100.015C260.739 101.88 260.809 103.746 261.057 105.593C261.225 106.795 262.94 106.557 263.249 105.593C263.824 103.799 264.08 101.889 264.133 99.9533C264.204 97.1773 263.867 94.3573 263.479 91.7143C262.948 88.0983 262.055 84.5363 260.853 81.0793C263.611 81.3623 266.44 80.8233 269.242 80.8763C271.55 80.9203 274.423 81.4773 275.811 83.5283C277.775 86.4453 275.282 90.4053 273.92 93.0223Z" fill="#90784F"/>
<path d="M173.348 125.436C173.124 125.124 172.836 124.854 172.503 124.648C171.602 124.088 170.412 123.858 169.308 123.743C169.29 123.739 169.271 123.735 169.254 123.732C168.673 123.617 168.043 123.494 167.41 123.437C167.019 123.392 166.628 123.363 166.244 123.368C165.397 123.378 164.609 123.662 164.082 124.343C164.018 124.426 163.97 124.514 163.921 124.601C162.768 125.567 162.567 127.347 163.398 128.63C164.16 129.807 165.487 130.557 166.796 130.972C168.081 131.378 169.492 131.415 170.803 131.118C172.042 130.837 173.369 130.114 173.953 128.931C174.581 127.662 174.256 126.368 173.348 125.436Z" fill="#F3B1A1"/>
<path d="M240.089 147.973C239.951 146.667 239.513 145.39 238.854 144.254C238.212 143.149 237.171 142.023 235.858 141.776C234.471 141.516 233.103 142.095 232.364 143.289C232.348 143.313 232.334 143.337 232.319 143.361C232.29 143.411 232.254 143.455 232.227 143.508C232.203 143.553 232.193 143.601 232.171 143.647C232.136 143.724 232.105 143.803 232.077 143.883C231.642 144.931 231.591 146.055 231.823 147.174C232.309 149.519 234.37 152.026 236.915 152.099C237.725 152.122 238.556 151.798 239.126 151.219C239.708 150.627 239.946 149.886 240.035 149.082C240.037 149.064 240.036 149.046 240.038 149.028C240.109 148.679 240.126 148.319 240.089 147.973Z" fill="#F3B1A1"/>
<path d="M153.17 164.936C152.965 164.33 152.539 163.98 152.057 163.829C151.075 156.536 150.072 149.245 149.07 141.954C148.81 140.062 148.533 138.172 148.257 136.281C148.013 134.61 147.926 132.797 147.412 131.182C146.968 129.788 146.13 128.549 144.741 127.982C143.462 127.46 141.94 127.654 141.039 128.762C140.345 129.614 141.091 131.084 142.111 130.775C142.131 137.994 144.036 145.092 145.601 152.093C146.435 155.821 147.268 159.55 148.102 163.278C148.215 163.785 148.31 164.384 148.449 164.977C148.394 165 148.338 165.021 148.285 165.046C148.109 165.15 147.968 165.291 147.863 165.468C147.861 165.471 147.86 165.473 147.859 165.476C147.836 165.508 147.799 165.526 147.78 165.562C147.775 165.573 147.77 165.583 147.765 165.594C147.751 165.623 147.738 165.653 147.724 165.682C147.711 165.709 147.698 165.734 147.682 165.759C147.677 165.766 147.672 165.774 147.668 165.781C147.62 165.894 147.572 166.008 147.524 166.121C147.48 166.255 147.474 166.401 147.467 166.542C147.484 166.669 147.501 166.796 147.518 166.923C147.562 167.109 147.648 167.272 147.774 167.41C147.838 167.518 147.923 167.603 148.031 167.667C148.169 167.794 148.332 167.879 148.518 167.923C148.68 167.959 148.842 167.996 149.005 168.024C149.087 168.038 149.169 168.052 149.251 168.066C149.351 168.083 149.45 168.096 149.551 168.11C149.645 168.123 149.714 168.143 149.8 168.135C150.103 168.108 150.305 168.089 150.568 167.924C150.657 167.872 150.733 167.806 150.807 167.739C152.29 167.87 153.685 166.455 153.17 164.936Z" fill="#FFE65E"/>
<path d="M191.317 38.0183C191.228 38.4163 191.131 38.8223 191.025 39.2113C187.675 51.6843 182.875 63.8933 175.458 74.4753C168.05 85.0483 157.884 93.9413 145.79 98.4673C136.322 102.003 121.011 104.098 111.826 98.3793C111.402 98.1143 111.075 97.8133 110.818 97.4863C112.189 93.6583 114.301 90.0603 116.458 86.6483C120.145 80.8053 124.193 75.2093 128.605 69.8873C131.036 66.9523 133.538 64.0793 136.154 61.3033C137.515 59.8623 138.895 58.4483 140.247 57.0073C141.591 55.5573 142.811 54.0013 144.181 52.5693C144.906 51.8183 143.916 50.3593 143.014 51.0573C140.176 53.2413 137.374 55.3453 134.837 57.8823C134.227 58.4923 133.635 59.1203 133.043 59.7383C133.441 57.9883 133.688 56.2113 134.006 54.4433C134.413 52.1893 134.872 49.9353 135.394 47.7073C135.915 45.4703 136.49 43.2523 137.127 41.0413C137.551 39.5563 137.967 37.7083 139.16 36.6123C140.636 35.2683 142.997 36.6653 144.553 37.2573C146.657 38.0623 148.734 38.9103 150.794 39.8213C152.854 40.7233 154.896 41.6773 156.92 42.6763C158.953 43.6843 161.163 45.3463 163.426 45.6373C164.955 45.8233 165.335 43.8253 164.557 42.8883C164.018 42.2343 163.213 41.7213 162.356 41.2703C166.183 40.5013 169.994 39.6963 173.848 39.1043C178.825 38.3443 183.873 37.9723 188.912 37.9813C189.717 37.9833 190.513 38.0003 191.317 38.0183Z" fill="#90784F"/>
<path d="M153.647 44.7053C150.03 42.9723 146.219 41.8253 142.224 41.4843C141.335 41.4083 140.367 41.2773 139.53 41.6643C138.545 42.1203 138.089 43.1113 138.163 44.1823C138.168 44.2593 138.182 44.3363 138.188 44.4123C138.085 44.9613 137.974 45.5083 137.916 46.0623C137.822 46.9463 137.763 47.8373 137.716 48.7243C137.624 50.4923 137.707 52.2793 137.84 54.0433C137.909 54.9603 138.821 55.5963 139.665 55.1073C144.334 52.4003 148.989 49.6673 153.647 46.9413C154.423 46.4873 154.531 45.1293 153.647 44.7053Z" fill="white"/>
<path d="M125.706 66.2542C125.529 67.0942 125.282 67.9162 124.972 68.7122C124.928 68.8532 124.875 68.9862 124.822 69.1192C123.31 72.8592 120.756 75.9262 117.608 78.3922C113.303 81.7782 107.893 84.0592 102.544 85.4292C93.2973 87.8072 83.5553 88.2312 74.5563 91.4582C51.3153 99.7852 37.8513 124.662 15.7953 135.747C15.5393 135.88 15.2733 136.003 15.0083 136.127C14.6013 132.229 14.3633 128.303 14.3633 124.378C14.3543 113.54 16.2373 102.498 21.0643 92.7122C21.6923 91.4302 22.3553 90.1752 23.0713 88.9372C26.4393 84.3312 30.4533 80.1502 35.1293 76.8522C37.5953 75.1192 40.6993 73.8822 42.7233 71.5922C44.9513 69.0642 45.0833 65.7402 45.2513 62.5402C45.9143 49.3772 48.7783 36.1432 54.6133 24.2712C57.3803 18.6492 60.7313 12.9202 65.1953 8.46518C69.0583 4.61118 74.8313 1.72918 80.2413 4.19518C85.6873 6.67918 85.5013 13.1062 83.1673 17.7472C80.3733 23.2902 74.9453 26.7552 70.6673 31.0432C65.9643 35.7552 63.1173 41.5892 62.8613 48.2992C62.6223 54.6202 64.6563 60.9762 68.8103 65.7762C68.8193 66.2622 69.1283 66.7132 69.7563 66.7042C71.7633 66.6602 73.6103 66.0682 75.5643 65.6262C77.5353 65.1932 79.5163 64.7772 81.4963 64.3792C85.4393 63.6102 89.4263 63.0712 93.4393 62.8052C101.475 62.2662 109.572 62.7702 117.484 64.2902C119.747 64.7232 121.993 65.2622 124.22 65.8552C124.715 65.9802 125.219 66.1122 125.706 66.2542Z" fill="#FAC680"/>
<path d="M171.803 182.18C171.666 180.597 171.34 179.032 170.786 177.535C170.093 175.662 167.514 175.995 167.344 178.001C167.277 178.794 167.163 179.589 167.028 180.383C166.624 180.658 166.351 181.117 166.387 181.773C166.414 182.269 166.409 182.762 166.387 183.255C165.527 186.271 164.119 189.133 162.049 191.475C158.948 194.984 154.429 197.147 149.701 196.888C147.181 196.75 145.116 195.683 142.963 194.468C140.557 193.11 138.125 192.148 135.312 192.49C132.432 192.84 129.698 194.024 126.932 194.849C124.514 195.57 122.073 196.212 119.612 196.775C99.5053 201.372 78.2533 200.537 58.4793 194.749C52.9613 193.134 47.5613 191.129 42.3283 188.747C38.4983 187.004 34.7063 185.073 31.0123 183.003C30.2803 182.469 29.5473 181.937 28.8073 181.41C28.4823 181.179 28.1523 181.12 27.8453 181.17C27.4683 180.947 27.0833 180.732 26.7093 180.506C26.2693 180.24 25.8583 180.282 25.5463 180.483C25.5843 179.887 25.5673 179.281 25.4823 178.669C25.4183 178.21 25.1483 177.894 24.7973 177.704C24.7963 177.378 24.7833 177.051 24.7393 176.724C24.6373 175.959 24.2753 175.291 23.4973 175.05C23.0483 174.7 22.4093 174.555 21.8903 174.698C20.8993 174.97 20.5183 175.912 20.6703 176.847C20.6813 176.915 20.6813 176.984 20.6883 177.052C19.1453 179.023 16.5553 179.974 14.0233 179.704C10.5533 179.334 7.67728 176.92 5.59028 174.284C4.66228 173.112 2.46628 174.071 2.59028 175.526C2.84728 178.524 4.05726 181.343 5.97526 183.466C5.97926 183.87 6.11228 184.286 6.41328 184.653C9.31227 188.182 14.3623 190.365 18.8723 188.897C22.0193 187.873 24.4053 185.341 25.2393 182.294C25.3133 182.388 25.3993 182.479 25.5093 182.558C25.9043 182.841 26.3003 183.124 26.6973 183.407C26.7633 183.544 26.8463 183.676 26.9653 183.796C30.7703 187.665 35.4593 190.788 40.0693 193.615C44.6343 196.415 49.4133 198.845 54.3483 200.922C64.6053 205.24 75.4473 207.853 86.5303 208.818C98.9613 209.9 111.462 209.034 123.846 207.789C130.123 207.158 136.39 206.44 142.655 205.7C145.807 205.327 148.96 204.961 152.109 204.568C154.832 204.228 157.575 203.854 160.191 202.992C165.315 201.303 169.175 197.77 171.152 192.738C172.485 189.351 172.767 185.622 171.803 182.18Z" fill="#ECE6AE"/>
<path d="M196.853 177.156C195.961 176.867 195.08 177.167 194.18 177.282C193.311 177.393 192.43 177.446 191.554 177.46C189.842 177.488 188.118 177.355 186.435 177.039C184.714 176.716 183.01 176.228 181.386 175.571C179.928 174.982 178.238 173.691 176.631 173.716C176.022 173.725 175.373 174.381 175.632 175.027C176.315 176.733 178.433 177.688 180.013 178.405C181.843 179.235 183.738 179.884 185.707 180.293C187.627 180.692 189.592 180.893 191.553 180.864C192.486 180.85 193.416 180.784 194.342 180.67C195.488 180.529 196.617 180.465 197.516 179.672C198.411 178.884 197.865 177.483 196.853 177.156Z" fill="#ECE6AE"/>
<path d="M205.904 201.229C205.776 200.987 205.683 200.742 205.591 200.497C205.603 200.115 205.503 199.734 205.295 199.423C205.18 198.746 205.173 198.051 205.263 197.324C205.364 196.511 204.424 195.58 203.618 195.679C198.111 196.353 192.582 196.833 187.041 197.104C184.344 197.236 181.644 197.329 178.944 197.373C176.129 197.419 173.279 197.25 170.487 197.627C169.738 197.728 169.451 198.485 169.566 199.158C167.674 199.244 165.468 199.656 165.344 201.95C165.223 204.188 167.531 205.078 169.388 205.187C174.849 205.51 180.411 205.298 185.874 205.09C192.09 204.854 198.295 204.392 204.478 203.713C205.725 203.576 206.531 202.418 205.904 201.229Z" fill="#ECE6AE"/>
<path d="M266.475 179.268C265.767 177.408 264.631 175.704 263.08 174.44C262.981 174.359 262.872 174.297 262.771 174.221C262.554 173.958 262.329 173.703 262.094 173.458C261.726 172.685 261.292 171.949 260.701 171.324C258.967 169.491 256.054 169.306 254.503 171.125C254.111 171.222 253.843 171.666 253.899 172.093C253.888 172.117 253.874 172.138 253.865 172.162C253.762 172.407 253.755 172.633 253.797 172.843C252.782 173.132 252.2 174.247 252.758 175.263C252.354 175.96 252.427 176.969 253.245 177.371C253.533 177.513 253.813 177.666 254.089 177.826C255.244 180.184 256.225 182.624 257.03 185.122C252.673 190.339 247.257 194.543 241.128 197.511C237.826 199.11 234.356 200.298 230.789 201.149C229.414 201.477 228.017 201.772 226.609 202.016C224.917 202.056 223.224 202.048 221.534 201.982C216.482 201.202 211.394 199.198 208.219 195.078C207.093 193.617 204.562 194.995 205.679 196.563C206.476 197.682 207.385 198.677 208.375 199.57C207.747 200.001 207.426 200.812 207.921 201.66C212.228 209.041 221.117 211.879 229.252 211.393C234.128 211.102 238.919 209.885 243.558 208.409C243.694 208.366 243.83 208.318 243.966 208.274C250.437 207.674 256.452 204.664 260.833 199.811C265.544 194.589 269.135 186.253 266.475 179.268Z" fill="#ECE6AE"/>
<path d="M67.0923 35.5433C64.1683 34.5203 61.1883 33.6853 58.1513 33.0673C56.6373 32.7593 55.1113 32.4903 53.5773 32.2953C51.9613 32.0893 50.4903 32.1573 48.8833 32.3233C48.2643 32.3873 47.9003 32.9413 47.9383 33.4463C47.7213 33.6153 47.5303 33.8203 47.4163 34.1053C47.1203 34.8403 47.3313 35.9002 48.1253 36.2682C48.2613 36.3312 48.4023 36.3803 48.5393 36.4413L48.5383 36.4433L48.5483 36.4453C52.8843 38.3773 57.5573 39.2963 62.2583 39.1833C62.6743 39.2663 63.0903 39.3493 63.5063 39.4323C64.1253 39.5563 64.7553 39.3832 65.1783 38.9682C65.8173 38.8962 66.4563 38.8193 67.0923 38.7093C68.8213 38.4103 68.4733 36.0263 67.0923 35.5433Z" fill="#90784F"/>
<path d="M72.6373 27.6772C66.9713 24.3232 60.5193 22.3962 53.9383 22.1362C52.7793 22.0902 52.0853 23.2542 52.3023 24.2562C51.7903 24.7362 51.6583 25.5622 52.4813 25.9802C53.4713 26.4832 54.4933 26.9232 55.5303 27.3272C57.6873 28.7852 60.0893 29.8642 62.5453 30.7802C65.6813 31.9502 70.9713 34.3222 73.0753 30.2562C73.1273 30.1552 73.1633 30.0552 73.1953 29.9562C73.2053 29.9422 73.2173 29.9312 73.2263 29.9172C73.7233 29.1822 73.3593 28.1042 72.6373 27.6772Z" fill="#90784F"/>
<path d="M85.8733 10.4572C84.8343 3.86324 77.4923 2.01924 71.8133 2.93724C69.0853 3.37824 66.4043 4.54223 64.1883 6.18823C61.9643 7.83923 59.7163 10.1142 58.7573 12.7752C58.5613 13.3222 58.4632 13.9272 58.4932 14.5162C58.3752 14.4772 58.2582 14.4342 58.1402 14.3962C56.7592 13.9482 55.8072 16.1202 57.1402 16.7692C60.5162 18.4142 63.9792 19.8232 67.4462 21.2652C69.2542 22.0172 71.0643 22.7642 72.8753 23.5102C74.5203 24.1882 76.2192 24.9132 78.0402 24.7822C81.0912 24.5622 83.1123 22.1372 84.2853 19.5162C85.5493 16.6872 86.3623 13.5662 85.8733 10.4572Z" fill="#90784F"/>
<path d="M65.3293 106.637C64.8133 105.503 63.8053 104.574 62.6863 104.047C59.5073 102.55 56.1193 103.869 53.8853 106.379C52.7263 107.681 51.5053 109.333 51.3723 111.13C51.2093 111.592 51.0913 112.067 51.0373 112.556C50.8543 114.213 51.6763 115.867 53.2163 116.574C54.6523 117.234 56.2543 117.099 57.7483 116.71C60.5903 115.97 63.6493 114.111 65.0643 111.453C65.8753 109.931 66.0503 108.223 65.3293 106.637Z" fill="#FAC680"/>
<path d="M49.0913 117.847C48.9593 117.709 48.7933 117.6 48.6423 117.486C48.5943 117.45 48.5443 117.416 48.4913 117.386C48.3223 117.293 48.1363 117.223 47.9573 117.154C47.9003 117.132 47.8423 117.112 47.7833 117.098C47.5913 117.051 47.3893 117.033 47.1943 117.012C47.1333 117.005 47.0723 117.001 47.0113 117.002C46.8153 117.005 46.6163 117.042 46.4243 117.073C46.3643 117.083 46.3053 117.095 46.2483 117.113C46.0163 117.186 45.7683 117.28 45.5663 117.423C45.2183 117.668 45.0053 117.873 44.7663 118.227C44.7343 118.274 44.7073 118.323 44.6833 118.375C44.6033 118.547 44.5163 118.726 44.4673 118.911C44.4193 119.092 44.4053 119.285 44.3843 119.47C44.3773 119.531 44.3733 119.591 44.3743 119.653C44.3803 119.857 44.4153 120.064 44.4503 120.264C44.4623 120.329 44.4793 120.394 44.5003 120.457C44.5843 120.699 44.6813 120.954 44.8323 121.166C45.0833 121.52 45.2823 121.72 45.6363 121.971C45.7903 122.08 45.9843 122.142 46.1553 122.21C46.2213 122.236 46.2873 122.256 46.3573 122.268C46.6193 122.316 46.8883 122.337 47.1503 122.271C47.1983 122.279 47.2493 122.284 47.3203 122.294C47.4613 122.313 47.4783 122.324 47.5673 122.323C47.6413 122.313 47.7163 122.303 47.7903 122.293C47.9423 122.292 48.0833 122.254 48.2143 122.178C48.3093 122.138 48.4163 122.099 48.5103 122.049C48.5993 122.002 48.6623 121.944 48.7483 121.878C48.8343 121.811 48.9133 121.757 48.9873 121.682C49.1303 121.536 49.2563 121.36 49.3733 121.197C49.5303 120.977 49.6343 120.708 49.7203 120.457C49.7413 120.396 49.7553 120.334 49.7663 120.27C49.8003 120.065 49.8453 119.849 49.8383 119.638C49.8143 118.959 49.5633 118.338 49.0913 117.847Z" fill="#FAC680"/>
<path d="M53.4003 120.946C51.5073 120.946 51.5043 123.888 53.4003 123.888C55.2933 123.888 55.2963 120.946 53.4003 120.946Z" fill="#FAC680"/>
<path d="M212.477 121.596C211.125 120.816 209.658 120.193 208.187 119.675C206.744 119.167 205.266 118.84 203.75 118.646C202.294 118.459 200.691 118.353 199.329 118.998C198.79 119.253 198.832 120.103 199.329 120.369C200.517 121.007 201.944 121.157 203.243 121.458C204.595 121.771 205.934 122.165 207.24 122.638C208.464 123.081 209.626 123.647 210.765 124.275C211.948 124.927 213.313 125.943 214.742 125.627C215.071 125.554 215.362 125.182 215.34 124.841C215.243 123.278 213.699 122.301 212.477 121.596Z" fill="#ECE6AE"/>
<path d="M230.81 227.756C229.836 223.288 227.383 219.127 224.082 215.954C223.335 214.665 222.19 213.483 221.354 212.528C219.506 210.416 217.453 208.374 214.976 207.008C209.22 203.833 201.965 204.815 195.66 204.929C188.61 205.056 181.559 205.182 174.509 205.309C170.69 205.378 166.871 205.446 163.052 205.515C159.336 205.582 155.44 205.322 151.766 205.966C151.015 206.098 150.327 206.306 149.685 206.568C149.598 206.204 149.377 205.857 149.071 205.695C148.528 205.408 147.917 205.493 147.462 205.903C146.868 206.438 146.374 207.166 146.02 207.88C146.001 207.919 145.985 207.959 145.966 207.998C145.505 208.411 145.101 208.876 144.772 209.419C144.338 210.137 143.91 211.117 144.169 211.954C143.717 212.82 143.327 213.735 142.992 214.676C142.485 215.699 141.966 216.715 141.429 217.722C140.542 217.709 140.266 218.626 140.599 219.271C140.521 219.413 140.448 219.557 140.37 219.698C139.197 221.829 137.921 223.899 137.032 226.169C136.73 226.941 137.805 227.394 138.325 226.922C138.6 226.672 138.847 226.395 139.102 226.127C139.067 226.284 139.026 226.439 138.992 226.597C138.611 228.342 140.771 229.152 141.775 227.77C145.264 222.966 148.823 218.206 152.255 213.361C153.127 212.554 154.051 211.883 155.089 211.518C157.887 210.534 161.058 210.845 163.969 210.909C167.501 210.987 171.033 211.065 174.565 211.143C181.482 211.296 188.399 211.44 195.316 211.587C198.414 211.653 201.609 211.552 204.638 212.302C207.342 212.972 209.34 214.481 211.33 216.353C213.155 218.07 214.98 219.935 217.286 221.003C217.782 221.233 218.341 221.439 218.924 221.597C221.887 224.305 225.015 226.81 228.16 229.301C229.377 230.264 231.168 229.398 230.81 227.756Z" fill="#E2E2E2"/>
<path d="M273.239 89.4273C272.885 87.4413 271.114 86.5053 269.45 85.7223C268.44 85.2473 267.421 84.7983 266.384 84.3823C265.379 83.9793 264.182 83.3003 263.077 83.3053C262.601 83.3073 262.235 83.4123 261.942 83.5823C261.937 83.5603 261.933 83.5383 261.927 83.5163C261.697 82.5513 260.161 82.7513 260.191 83.7513C260.331 88.5323 260.904 93.2763 261.505 98.0213C261.641 99.0993 261.778 100.177 261.914 101.255C262.053 102.353 261.964 103.871 263.071 104.506C264.034 105.058 264.998 104.494 265.629 103.752C266.35 102.903 267.026 102.01 267.682 101.111C268.949 99.3753 270.105 97.5593 271.142 95.6773C272.148 93.8533 273.627 91.6033 273.239 89.4273Z" fill="white"/>
<path d="M181.768 176.167C181.385 176.005 180.916 176.145 180.704 176.516C180.259 177.295 179.832 178.082 179.412 178.875C179.202 179.271 178.992 179.668 178.782 180.064C178.677 180.262 178.571 180.46 178.472 180.661C178.43 180.747 178.385 180.833 178.345 180.92C178.232 181.165 178.198 181.346 178.163 181.614C178.113 181.994 178.453 182.383 178.77 182.517C179.132 182.67 179.568 182.596 179.85 182.313C180.202 181.96 180.375 181.449 180.578 181.002C180.764 180.592 180.949 180.181 181.134 179.77C181.524 178.909 181.9 178.045 182.262 177.172C182.424 176.782 182.118 176.314 181.768 176.167Z" fill="#663829"/>
<path d="M183.823 178.248C183.596 178.64 183.36 179.027 183.143 179.424C183.017 179.656 182.943 179.925 182.856 180.173C182.822 180.27 182.788 180.367 182.754 180.463C182.706 180.6 182.696 180.743 182.678 180.886C182.639 181.212 183.102 181.48 183.364 181.28C183.477 181.194 183.594 181.114 183.686 181.005C183.752 180.927 183.818 180.848 183.884 180.77C184.052 180.57 184.248 180.37 184.383 180.147C184.617 179.76 184.829 179.358 185.051 178.964C185.234 178.64 185.139 178.173 184.796 177.992C184.456 177.814 184.022 177.905 183.823 178.248Z" fill="#663829"/>
<path d="M188.485 180.944C188.523 181.121 188.543 181.337 188.646 181.489C188.743 181.632 188.849 181.77 188.975 181.888C189.092 181.997 189.232 182.045 189.389 182.024C189.528 182.005 189.688 181.925 189.749 181.788C189.82 181.632 189.881 181.478 189.914 181.31C189.943 181.164 189.938 181.055 189.911 180.905C189.905 180.873 189.898 180.841 189.892 180.809L189.85 180.585C189.797 180.297 189.742 180.008 189.688 179.72C189.657 179.552 189.502 179.375 189.358 179.291C189.204 179.201 188.978 179.163 188.805 179.219C188.632 179.275 188.464 179.383 188.376 179.549C188.282 179.726 188.262 179.906 188.303 180.102C188.365 180.382 188.425 180.663 188.485 180.944Z" fill="#663829"/>
<path d="M221.822 211.068C229.658 212.172 237.784 211.705 245.415 209.899C253.757 207.924 263.272 204.2 267.884 196.465C273.539 186.98 267.428 175.861 260.19 169.123C260.654 168.634 261.103 168.131 261.532 167.61C261.651 167.465 261.757 167.313 261.873 167.166C262.029 167.536 262.179 167.907 262.347 168.271C262.607 168.836 262.86 169.405 263.127 169.967C263.26 170.246 263.399 170.526 263.554 170.793C263.755 171.137 264.032 171.426 264.297 171.721C264.58 172.037 265.099 172.161 265.499 172.039C265.734 171.967 265.857 171.873 266.045 171.721C266.389 171.442 266.452 170.919 266.363 170.519C266.209 169.828 265.945 169.216 265.607 168.595C265.311 168.052 264.992 167.52 264.685 166.982C264.296 166.303 263.878 165.639 263.457 164.977C263.69 164.624 263.922 164.272 264.14 163.911C264.632 164.144 265.123 164.377 265.615 164.607C266.027 164.799 266.443 164.961 266.875 165.097C267.045 165.15 267.216 165.204 267.386 165.256C267.821 165.391 268.208 165.318 268.597 165.096C269.019 164.854 269.219 164.329 269.098 163.864C268.991 163.454 268.779 163.145 268.407 162.93C268.253 162.841 268.093 162.761 267.937 162.677C267.527 162.457 267.108 162.264 266.672 162.099C266.246 161.939 265.82 161.781 265.393 161.624C266.012 160.386 266.553 159.114 267.02 157.814C267.488 157.823 267.955 157.828 268.422 157.814C268.837 157.802 269.253 157.79 269.668 157.778C269.933 157.77 270.19 157.765 270.442 157.678C270.676 157.597 270.901 157.495 271.121 157.381C271.574 157.147 271.574 156.414 271.121 156.18C270.901 156.066 270.677 155.966 270.442 155.883C270.207 155.8 269.964 155.791 269.716 155.784C269.285 155.771 268.854 155.759 268.422 155.746C268.18 155.739 267.938 155.744 267.695 155.745C269.549 149.455 269.822 142.648 269.048 136.138C268.322 130.026 267.108 123.729 264.972 117.896C265.114 117.763 265.247 117.604 265.355 117.397C269.438 109.568 273.547 101.75 277.606 93.9082C279.393 90.4552 281.145 86.4073 279.39 82.5833C278.064 79.6933 274.984 78.0963 271.97 77.5823C267.859 76.8813 263.712 77.9163 259.571 77.9053C256.065 69.4183 250.822 61.7363 244.146 55.4203C230.354 42.3713 211.691 35.5362 192.867 34.7722C186.943 34.5322 181.026 34.9042 175.16 35.7472C169.719 36.5292 164.261 37.7673 159.164 39.8603C157.464 39.0173 155.749 38.2042 154.017 37.4272C150.354 35.7842 146.57 34.0212 142.709 32.8992C139.201 31.8802 136.396 33.5973 134.958 36.7973C133.45 40.1543 132.745 43.9813 131.977 47.5623C131.023 52.0123 129.87 56.7812 130.158 61.3542C130.184 61.7652 130.389 62.0662 130.66 62.2662C130.165 62.7992 129.687 63.3472 129.198 63.8862C128.217 63.4252 127.064 63.1652 126.152 62.8742C124.162 62.2392 122.132 61.7263 120.095 61.2653C116.87 60.5343 113.605 59.9932 110.321 59.6172C110.33 59.5912 110.339 59.5662 110.348 59.5402C110.495 59.1032 110.581 58.6403 110.691 58.1923C110.758 57.9183 110.868 57.6143 110.86 57.3323C110.853 57.0743 110.795 56.8093 110.747 56.5563C110.649 56.0303 109.931 55.9012 109.585 56.2492C109.405 56.4312 109.2 56.6263 109.063 56.8453C108.915 57.0823 108.835 57.3912 108.738 57.6542C108.578 58.0872 108.389 58.5212 108.265 58.9662C108.225 59.1092 108.19 59.2522 108.151 59.3952C107.986 59.3802 107.822 59.3592 107.657 59.3442C106.997 59.2872 106.335 59.2492 105.674 59.2062C105.679 59.1762 105.684 59.1452 105.688 59.1152C105.801 58.3852 105.922 57.6572 106.007 56.9232C106.084 56.2632 106.171 55.6042 106.232 54.9432C106.297 54.2262 106.278 53.1022 105.677 52.5942C105.309 52.2832 104.852 52.1983 104.417 52.4313C103.638 52.8503 103.434 53.9983 103.339 54.7953C103.261 55.4533 103.213 56.1152 103.155 56.7752C103.098 57.4342 103.073 58.0952 103.04 58.7552C103.035 58.8602 103.037 58.9653 103.032 59.0713C96.2022 58.8193 89.3302 59.2923 82.6182 60.5473C80.3512 60.9713 78.0962 61.4552 75.8932 62.1412C74.4392 62.5942 72.9193 63.0152 71.5053 63.6262C71.4883 63.6052 71.4773 63.5833 71.4593 63.5623C67.6963 59.3203 65.8853 53.6593 66.1813 48.0263C66.5053 41.8643 69.4522 36.8522 73.8382 32.6652C78.4282 28.2832 83.8473 24.5242 86.4963 18.5442C88.8053 13.3322 88.9682 6.69824 84.1742 2.78724C79.5442 -0.990757 72.8462 -0.652744 67.8372 2.15326C62.1732 5.32626 58.1972 11.0832 54.9032 16.5122C47.8512 28.1332 43.9323 41.4033 42.3263 54.8403C42.0983 56.7433 41.9193 58.6523 41.7873 60.5643C41.6613 62.3983 41.7032 64.2853 41.3942 66.1003C41.0882 67.9013 40.3283 69.2853 38.8493 70.3783C37.4083 71.4433 35.7792 72.2542 34.2952 73.2612C32.3602 74.5732 30.5363 76.0443 28.8273 77.6333C28.7773 77.4923 28.7282 77.3513 28.6792 77.2103C28.6362 77.0883 28.5963 76.9643 28.5503 76.8443C28.4193 76.4983 28.2143 76.2283 27.8873 76.0513C27.9593 76.1073 28.0323 76.1622 28.1033 76.2182C27.9813 76.0872 27.8862 75.9303 27.7562 75.8053C27.4982 75.5553 27.1183 75.4823 26.7873 75.6223C26.4553 75.7623 26.2563 76.0733 26.2423 76.4323C26.2363 76.5743 26.2563 76.7153 26.2673 76.8573C26.2513 76.9273 26.2403 77.0013 26.2413 77.0963C26.2443 77.3353 26.3102 77.5313 26.4062 77.7483C26.4532 77.8563 26.5033 77.9643 26.5523 78.0723C26.6533 78.2983 26.7553 78.5243 26.8573 78.7503C26.9183 78.8853 26.9793 79.0203 27.0393 79.1553C26.6113 79.5203 26.1882 79.8912 25.7772 80.2742C25.6542 80.1142 25.5452 79.9453 25.4152 79.7903C25.0722 79.3803 24.7113 78.9912 24.2723 78.6842C24.0203 78.5082 23.7583 78.3133 23.4523 78.2523C23.1583 78.1943 22.7552 78.1153 22.4582 78.2223C22.1212 78.3433 21.8343 78.6413 21.8493 79.0233C21.8613 79.3433 22.0153 79.6213 22.1473 79.9073C22.2733 80.1803 22.5173 80.3763 22.7233 80.5883C23.0283 80.9003 23.3783 81.1653 23.6893 81.4723C23.8393 81.6213 23.9862 81.7752 24.1272 81.9342C24.1332 81.9402 24.1382 81.9473 24.1442 81.9543C23.9822 82.1393 23.8193 82.3233 23.6643 82.5163C21.9663 84.6223 20.4662 86.9203 19.1232 89.2663C16.3782 94.0593 14.4093 99.3723 13.0423 104.713C9.94926 116.796 10.2253 129.373 11.9083 141.648C12.2603 144.219 12.6922 146.778 13.1532 149.332C8.55725 151.05 4.84524 155.013 2.61824 159.322C-0.0137558 164.414 -0.673736 170.352 0.694264 175.915C1.99226 181.195 5.24326 186.4 10.1243 189.032C14.7323 191.517 20.8233 191.319 24.7293 187.574C25.5773 186.762 26.2423 185.785 26.7293 184.726C27.2623 185.352 27.8403 185.948 28.4233 186.541C29.7573 187.898 31.1563 189.197 32.6073 190.429C35.5193 192.902 38.6693 195.124 41.9233 197.123C48.4843 201.153 55.6143 204.25 62.9703 206.508C74.3333 209.995 86.1943 211.405 98.0513 211.293C99.1233 211.466 100.198 211.622 101.277 211.749C105.165 212.207 109.085 212.397 113 212.325C120.826 212.181 128.688 210.893 136.181 208.646C138.323 208.003 140.437 207.272 142.518 206.454C142.888 206.308 143.289 206.164 143.699 206.017C144.118 206.204 144.548 206.369 144.981 206.523C140.572 214.556 137.008 223.039 132.672 231.121C128.239 239.381 123.375 247.407 118.133 255.177C117.364 256.318 118.397 257.742 119.63 257.786C136.396 258.377 153.183 258.325 169.945 257.615C186.627 256.908 203.281 255.556 219.858 253.56C229.281 252.426 238.679 251.088 248.044 249.549C249.121 249.372 249.807 247.754 249.133 246.872C240.021 234.941 230.936 222.993 221.822 211.068ZM143.525 202.075C127.138 205.736 110.468 208.095 93.6603 207.661C92.5763 207.5 91.4972 207.323 90.4282 207.13C89.9672 207.047 89.5993 207.212 89.3613 207.482C74.3843 206.638 59.4703 203.005 46.2963 195.702C42.6453 193.679 39.1223 191.389 35.8523 188.792C34.2583 187.526 32.6953 186.226 31.1883 184.856C29.9873 183.764 28.8683 182.574 27.5903 181.598C27.6323 181.186 27.6573 180.773 27.6473 180.358C27.6133 179.005 27.3063 177.698 26.7453 176.469C26.1063 175.068 25.1953 174.266 23.8793 173.52C22.3213 172.637 20.6732 174.718 21.9582 176.009C23.0442 177.1 23.8093 178.814 23.8493 180.358C23.8933 182.075 23.2913 183.69 22.0473 184.886C19.1903 187.634 14.6022 187.351 11.4032 185.428C3.65725 180.772 1.73426 169.337 5.40126 161.568C7.25926 157.632 10.2603 154.755 13.6943 152.269C13.7223 152.414 13.7453 152.56 13.7743 152.705C14.5163 156.496 15.1683 160.416 16.3113 164.107C17.0243 166.41 20.1973 165.418 19.8443 163.133C19.3453 159.911 18.4623 156.725 17.8003 153.531C17.1373 150.327 16.5273 147.11 16.0083 143.879C14.9773 137.457 14.3322 130.961 14.3292 124.452C14.3252 113.61 16.2042 102.571 21.0272 92.7852C21.6582 91.5052 22.3252 90.2463 23.0362 89.0133C26.4082 84.4063 30.4223 80.2193 35.0933 76.9303C37.5613 75.1923 40.6633 73.9573 42.6843 71.6673C44.9183 69.1353 45.0523 65.8123 45.2143 62.6103C45.8793 49.4493 48.7443 36.2172 54.5773 24.3482C57.3423 18.7222 60.6933 12.9923 65.1583 8.53625C69.0223 4.68225 74.7983 1.80225 80.2103 4.26925C85.6513 6.74925 85.4683 13.1812 83.1293 17.8222C80.3353 23.3652 74.9073 26.8273 70.6303 31.1183C65.9343 35.8303 63.0853 41.6672 62.8313 48.3692C62.5913 54.6972 64.6212 61.0493 68.7732 65.8503C68.7842 66.3363 69.0953 66.7863 69.7243 66.7753C71.7293 66.7383 73.5783 66.1373 75.5333 65.7023C77.5033 65.2633 79.4833 64.8473 81.4643 64.4573C85.4053 63.6813 89.3942 63.1483 93.4022 62.8793C101.441 62.3393 109.54 62.8483 117.452 64.3663C119.719 64.8013 121.96 65.3373 124.192 65.9263C125.052 66.1533 125.909 66.3893 126.765 66.6283C122.243 71.8783 118.092 77.4773 114.309 83.2783C110.843 88.5923 107.516 94.2233 106.175 100.461C105.541 99.8273 104.827 99.2703 104.083 98.7713C103.614 98.4573 103.13 98.1632 102.618 97.9232C101.928 97.6012 101.269 97.3743 100.513 97.2823C99.9093 97.2093 99.2083 97.1253 98.6973 97.5263C98.0333 98.0473 98.5262 98.8142 99.0272 99.2292C99.9522 99.9942 100.992 100.535 102.044 101.102C103.169 101.708 104.229 102.425 105.291 103.131C105.423 103.218 105.568 103.27 105.717 103.293C105.649 103.915 105.609 104.536 105.588 105.158C105.358 105.117 105.128 105.08 104.905 105.046C104.141 104.929 103.377 104.814 102.61 104.721C101.931 104.638 101.241 104.505 100.556 104.528C100.215 104.539 99.8703 104.544 99.5293 104.571C98.8483 104.624 98.2123 105.043 98.1163 105.76C98.0223 106.457 98.5232 107.052 99.1652 107.263C99.4842 107.368 99.8263 107.432 100.153 107.512C100.903 107.695 101.695 107.719 102.464 107.783C103.148 107.84 103.832 107.878 104.517 107.914C104.875 107.933 105.259 107.958 105.638 107.951C105.75 109.546 105.999 111.131 106.365 112.693C106.134 112.793 105.902 112.894 105.671 112.994C105.52 113.059 105.369 113.125 105.218 113.19C105.189 113.203 105.187 113.203 105.169 113.211C105.097 113.241 105.024 113.271 104.951 113.301C104.622 113.437 104.291 113.571 103.969 113.725C103.406 113.995 102.888 114.279 102.369 114.63C102.131 114.792 101.9 114.96 101.671 115.135C101.306 115.414 101.094 115.74 100.935 116.165C100.788 116.559 101.101 117.017 101.478 117.121C102.173 117.313 102.79 117.09 103.437 116.853C104.09 116.613 104.688 116.328 105.296 115.995C105.869 115.681 106.43 115.342 106.989 114.998C107.893 117.907 109.175 120.706 110.697 123.3C114.892 130.444 120.952 136.241 126.902 141.906C128.659 143.578 131.332 140.912 129.567 139.242C120.028 130.211 108.813 119.441 109.256 105.183C109.467 98.4113 112.902 92.3133 116.427 86.7233C120.111 80.8813 124.162 75.2802 128.571 69.9642C131.006 67.0282 133.507 64.1513 136.124 61.3773C137.481 59.9403 138.859 58.5232 140.21 57.0802C141.562 55.6352 142.782 54.0793 144.152 52.6443C144.874 51.8893 143.884 50.4363 142.984 51.1293C140.148 53.3133 137.34 55.4192 134.801 57.9582C134.193 58.5672 133.606 59.1963 133.008 59.8143C133.403 58.0653 133.659 56.2913 133.974 54.5193C134.376 52.2613 134.838 50.0133 135.359 47.7803C135.88 45.5463 136.461 43.3253 137.092 41.1203C137.52 39.6313 137.93 37.7822 139.126 36.6912C140.606 35.3422 142.965 36.7392 144.523 37.3352C146.622 38.1392 148.704 38.9893 150.762 39.8943C152.824 40.8013 154.865 41.7543 156.884 42.7543C158.918 43.7613 161.127 45.4242 163.392 45.7102C164.923 45.9032 165.307 43.8982 164.528 42.9662C163.984 42.3142 163.185 41.7972 162.325 41.3462C166.147 40.5822 169.958 39.7723 173.818 39.1813C178.796 38.4183 183.841 38.0462 188.877 38.0612C198.382 38.0902 207.841 39.6343 216.785 42.8753C233.299 48.8603 247.61 60.6703 255.119 76.7083C257.219 81.1923 258.719 85.9563 259.646 90.8183C260.107 93.2363 260.356 95.6632 260.517 98.1172C260.682 100.636 260.684 103.17 261.026 105.671C261.189 106.867 262.908 106.629 263.218 105.671C264.635 101.291 264.104 96.2693 263.448 91.7933C262.918 88.1713 262.021 84.6112 260.817 81.1562C263.579 81.4412 266.403 80.8973 269.209 80.9523C271.515 80.9973 274.389 81.5553 275.775 83.6073C277.741 86.5183 275.251 90.4793 273.886 93.1013C272.064 96.5973 270.242 100.093 268.421 103.59C266.489 107.299 264.556 111.008 262.623 114.716C262.087 114.847 261.617 115.269 261.686 115.863C262.381 121.788 264.191 127.524 265.078 133.423C265.887 138.805 266.129 144.397 265.235 149.786C264.407 154.776 262.678 159.609 259.728 163.748C256.916 167.697 252.947 170.663 248.722 172.955C246.295 174.272 243.767 175.388 241.192 176.382C238.557 177.399 235.958 178.402 233.581 179.948C232.741 180.495 232.991 182.044 234.128 181.968C239.383 181.619 244.471 179.363 249.13 177.026C252.31 175.431 255.378 173.489 258.07 171.134C262.299 177.345 268.474 184.061 265.77 192.129C263.422 199.135 255.514 202.856 249.005 204.939C240.368 207.703 231.093 208.547 222.106 207.245C216.147 206.381 205.522 204.25 207.569 195.891C208.469 192.217 211.288 189.405 214.878 188.316C217.117 187.636 219.479 187.542 221.796 187.81C224.171 188.084 226.412 188.927 228.783 189.205C230.431 189.398 230.63 187.141 229.549 186.377C227.551 184.965 225.089 184.471 222.696 184.141C220.255 183.804 217.813 183.81 215.388 184.287C211.182 185.114 207.475 187.603 205.343 191.349C203.382 194.793 202.871 199.043 204.682 202.655C204.757 202.804 204.841 202.945 204.922 203.089C203.718 203.093 202.465 203.287 201.366 203.334C199.467 203.415 197.567 203.484 195.668 203.542C191.63 203.665 187.592 203.737 183.553 203.758C179.593 203.778 175.634 203.736 171.675 203.685C169.695 203.659 167.717 203.61 165.738 203.571C165.7 203.57 165.657 203.568 165.618 203.567C168.502 201.619 170.96 199.05 172.668 195.993C175.298 191.286 175.97 185.614 174.388 180.444C172.714 174.974 168.699 170.788 163.444 168.609C160.838 167.528 158.032 166.979 155.215 166.887C154.142 162.577 153.742 158.011 153.073 153.626C152.381 149.098 151.69 144.569 150.999 140.041C150.665 137.855 150.332 135.669 149.998 133.483C149.709 131.591 149.696 129.178 148.689 127.485C147.83 126.041 146.2 125.268 144.549 125.285C142.525 125.306 140.792 126.406 139.196 127.536C138.632 127.936 138.342 128.536 138.508 129.227C140.135 136.005 141.615 142.816 142.978 149.652C143.651 153.031 144.25 156.423 144.902 159.806C145.227 161.494 145.509 163.193 145.854 164.878C146.056 165.865 146.292 166.889 146.623 167.869C146.28 167.979 145.938 168.093 145.611 168.23C144.931 168.276 144.232 168.456 143.584 168.56C142.282 168.769 140.983 169 139.692 169.269C137.109 169.806 134.551 170.482 132.04 171.292C127.04 172.904 122.493 175.352 117.798 177.649C117.411 177.838 117.75 178.38 118.13 178.217C122.85 176.192 128.011 175.104 132.995 173.925C135.425 173.35 137.876 172.857 140.336 172.428C141.528 172.22 142.72 172.022 143.917 171.854C144.066 171.917 144.222 171.962 144.384 171.968C147.09 172.064 149.813 170.928 152.529 170.741C155.135 170.561 157.732 170.76 160.241 171.503C164.642 172.806 168.439 175.753 170.249 180.04C173.884 188.648 169.099 198.014 161.085 201.979C156.919 204.04 152.545 204.252 148.116 203.834C148.256 203.713 148.4 203.595 148.524 203.462C149.389 202.535 148.835 200.704 147.419 200.795C146.077 200.877 144.784 201.488 143.525 202.075ZM152.228 166.938C151.089 167.001 149.901 167.122 148.732 167.339C148.73 166.406 148.645 165.466 148.538 164.565C148.337 162.871 148.041 161.182 147.779 159.496C147.237 156.014 146.57 152.548 145.902 149.087C144.633 142.513 143.196 135.973 141.641 129.462C142.703 128.735 143.894 128.083 145.175 128.332C146.801 128.649 146.771 130.548 146.973 131.875C147.579 135.857 148.186 139.84 148.792 143.822L150.575 155.535C151.147 159.297 151.966 163.132 152.228 166.938ZM197.637 252.267C181.08 253.705 164.467 254.504 147.848 254.663C139.493 254.743 131.137 254.648 122.785 254.405C130.314 242.94 136.989 230.914 142.651 218.419C144.315 214.746 145.787 210.971 146.88 207.089C148.854 207.569 150.923 207.747 152.984 207.668C153.241 208.621 153.581 209.556 153.934 210.47C154.523 211.999 155.115 213.527 155.701 215.057C155.939 215.677 156.472 216.226 157.194 216.194C157.866 216.164 158.515 215.737 158.687 215.057C158.886 214.271 158.925 213.413 159.031 212.608C159.129 211.87 159.226 211.132 159.323 210.394L159.603 208.268C159.683 207.662 159.817 207.047 159.751 206.456C160.083 206.347 160.411 206.231 160.735 206.109C162.034 206.966 164.326 206.887 165.738 206.964C167.636 207.068 169.537 207.128 171.438 207.192C175.474 207.33 179.514 207.377 183.553 207.384C187.512 207.391 191.472 207.349 195.431 207.258C197.41 207.212 199.389 207.155 201.367 207.084C202.317 207.05 203.267 207.014 204.216 206.974C205.337 206.927 206.44 207.011 207.431 206.416C207.513 206.367 207.581 206.299 207.652 206.235C209.776 207.931 212.461 208.999 215.033 209.692C215.45 209.805 215.871 209.905 216.291 210.007C225.603 222.177 234.953 234.317 244.277 246.478C228.806 248.974 213.249 250.911 197.637 252.267Z" fill="#663829"/>
<path d="M175.576 130.615C178.115 131.038 180.837 129.956 182.412 127.913C183.105 127.014 183.549 126.017 183.756 124.987C184.441 123.155 184.308 121.153 183.323 119.316C182.209 117.24 179.927 115.638 177.568 115.412C175.036 115.17 172.514 116.295 170.977 118.332C169.396 120.428 168.755 123.187 169.743 125.691C170.714 128.153 172.92 130.173 175.576 130.615Z" fill="#663829"/>
<path d="M230.842 145.047C233.38 145.47 236.103 144.388 237.678 142.345C238.371 141.446 238.815 140.449 239.022 139.419C239.707 137.587 239.574 135.585 238.59 133.748C237.476 131.672 235.194 130.07 232.834 129.844C230.303 129.602 227.781 130.727 226.244 132.764C224.663 134.86 224.022 137.619 225.01 140.123C225.98 142.586 228.186 144.605 230.842 145.047Z" fill="#663829"/>
<path d="M193.978 142.884C195.712 143.399 197.658 143.059 199.344 142.494C200.24 142.194 201.079 141.777 201.862 141.272C201.927 141.421 201.997 141.567 202.055 141.718C202.343 142.461 202.731 143.164 203.196 143.812C203.616 144.399 204.062 144.967 204.532 145.516C204.75 145.771 204.975 146.023 205.204 146.269C205.545 146.635 205.864 146.908 206.378 147.006C206.54 147.054 206.707 147.066 206.879 147.041C207.323 146.938 207.382 146.922 207.057 146.994C207.632 146.862 208.007 146.545 208.154 145.976C208.171 145.917 208.19 145.852 208.217 145.76C208.252 145.589 208.246 145.423 208.199 145.261C208.138 144.846 207.958 144.525 207.677 144.228C207.529 144.071 207.375 143.919 207.224 143.764C207.183 143.723 207.143 143.68 207.102 143.639C207.087 143.623 207.064 143.597 207.02 143.551C206.567 143.05 206.125 142.539 205.708 142.007C205.242 141.412 204.745 140.86 204.24 140.3C204.326 140.389 204.313 140.371 204.199 140.244C204.136 140.171 204.074 140.097 204.012 140.023C203.934 139.928 203.863 139.83 203.794 139.73C203.809 139.716 203.824 139.704 203.839 139.69C205.083 138.466 206.071 136.895 206.629 135.24C206.757 134.863 206.868 134.468 206.958 134.067C208.247 134.16 209.562 134.018 210.776 133.629C211.407 133.427 211.82 132.743 211.833 132.113C211.846 131.513 211.476 130.741 210.849 130.554C208.013 129.711 205.177 128.868 202.34 128.025C201.902 127.895 201.517 127.827 201.073 127.996C200.682 128.144 200.279 128.501 200.127 128.898C199.895 129.504 200.018 130.368 200.527 130.835C201.522 132.027 202.735 132.887 204.143 133.439C204.041 133.765 203.931 134.088 203.799 134.41C203.3 135.627 202.554 136.764 201.572 137.648C200.635 138.491 199.53 139.118 198.342 139.528C197.034 139.979 195.75 139.888 194.407 140.066C193.758 140.152 193.206 140.653 193.108 141.311C193.019 141.903 193.363 142.701 193.978 142.884Z" fill="#663829"/>
<path d="M353.133 227.661C353.135 227.161 352.884 226.656 352.277 226.299C348.59 224.136 344.578 222.396 340.726 220.546C336.848 218.683 332.947 216.867 329.026 215.098C325.104 213.329 321.161 211.606 317.198 209.931C315.224 209.096 313.24 208.286 311.249 207.492C310.323 207.123 309.397 206.749 308.466 206.392C307.693 206.096 306.939 205.906 306.17 205.72C305.886 204.983 305.166 204.376 304.178 204.545C294.879 206.136 285.628 207.999 276.441 210.143C271.922 211.198 267.426 212.337 262.949 213.556C258.373 214.801 253.791 216.047 249.427 217.927C248.576 218.293 248.793 219.207 249.379 219.658C250.152 221.57 251.161 223.385 252.165 225.185C253.329 227.271 254.47 229.372 255.669 231.439C257.986 235.435 260.303 239.431 262.62 243.426C264.52 246.702 266.266 250.514 269.141 253.079C270.426 254.226 271.956 255.132 273.666 255.449C275.811 255.846 277.932 255.418 280.008 254.866C297.925 250.1 315.778 245.095 333.678 240.265C338.665 238.919 343.695 237.678 348.649 236.213C350.566 235.646 352.605 234.736 353.575 232.871C354.445 231.196 354.391 229.091 353.133 227.661ZM348.891 232.25C347.135 233.032 345.117 233.378 343.268 233.89C339.219 235.012 335.17 236.134 331.12 237.257C322.945 239.523 314.771 241.788 306.589 244.028C298.408 246.269 290.226 248.509 282.045 250.749C278.734 251.656 274.851 253.323 271.82 250.88C269.203 248.771 267.661 245.394 265.99 242.561C263.561 238.446 261.133 234.33 258.706 230.215C257.492 228.157 256.227 226.129 254.979 224.091C254.042 222.561 253.113 221.008 252.059 219.553C256.014 218.766 259.9 217.662 263.806 216.662C268.376 215.492 272.962 214.378 277.557 213.315C286.471 211.255 295.446 209.464 304.465 207.925C305.3 208.403 306.092 208.896 306.995 209.289C307.98 209.718 308.977 210.117 309.966 210.534C311.945 211.37 313.922 212.215 315.9 213.056C319.787 214.71 323.656 216.41 327.503 218.155C331.351 219.9 335.178 221.69 338.984 223.525C342.555 225.247 346.062 227.183 349.671 228.83C349.695 229.218 349.861 229.611 350.24 229.958C351.186 230.825 349.591 231.938 348.891 232.25Z" fill="#663829"/>
</svg>
