<svg width="242" height="174" viewBox="0 0 242 174" fill="none" xmlns="http://www.w3.org/2000/svg">
<path d="M233.451 154.294C229.662 157.34 224.646 159.035 219.963 160.061C217.092 160.687 214.179 160.996 211.249 161.021C209.772 161.029 208.294 160.963 206.825 160.821C206.115 160.754 205.406 160.662 204.705 160.562C204.538 160.537 204.396 160.52 204.246 160.512C204.38 160.161 204.48 159.794 204.53 159.419C204.714 158.184 203.203 156.848 202.168 158.05C201.342 159.002 200.816 160.087 200.123 161.13C199.413 162.198 198.587 163.167 197.686 164.068C195.916 165.837 193.838 167.265 191.576 168.325C187.303 170.328 181.543 171.121 177.162 169.001C174.783 167.849 173.289 165.796 172.98 163.167C172.813 161.756 172.972 160.371 173.339 159.027C173.848 158.635 174.032 157.934 173.907 157.316C174.249 156.44 174.658 155.588 175.092 154.77C177.688 149.996 181.177 145.706 185.241 142.117C187.495 140.122 189.94 138.361 192.511 136.817C195.099 135.273 197.911 134.138 200.457 132.552C201.15 132.118 200.949 130.766 200.006 130.874C199.931 130.882 199.848 130.891 199.773 130.907C196.893 131.283 194.122 132.576 191.593 133.954C188.905 135.415 186.385 137.134 184.014 139.062C179.323 142.885 175.242 147.617 172.329 152.934C171.778 153.927 171.286 154.962 170.86 156.03C154.209 155.98 137.557 155.922 120.914 155.888C103.828 155.846 86.751 155.805 69.674 155.771C65.351 155.771 60.969 155.963 56.653 155.679C56.269 155.612 55.894 155.545 55.51 155.479C54.667 155.329 53.824 155.179 52.989 155.028C51.645 154.602 50.41 153.943 49.375 152.916C47.589 149.519 45.619 146.222 43.808 142.842C41.763 139.036 39.8351 135.155 38.1571 131.165C34.8521 123.294 32.6151 114.906 32.5401 106.334C32.4981 102.144 32.991 97.9706 34.167 93.9386C35.21 90.3496 36.746 86.7186 39.476 84.0816C41.955 81.6776 45.7191 80.2256 49.1161 81.4186C52.1711 82.4866 53.9231 85.6006 54.8581 88.5136C55.0171 89.0226 55.158 89.5316 55.292 90.0496C54.532 94.1566 54.8411 98.2706 56.0011 102.186C55.8091 104.223 55.4581 106.234 54.9491 108.212C54.6571 109.347 54.2981 110.466 53.9311 111.576C53.5551 112.753 53.322 113.946 52.896 115.107C52.395 116.492 54.557 117.369 55.258 116.1C55.792 115.123 56.41 114.18 56.836 113.145C57.312 112.001 57.6791 110.825 57.9961 109.631C58.1461 109.097 58.2801 108.554 58.3971 108.012C58.8481 108.855 59.3401 109.673 59.8581 110.483C62.3291 114.281 65.4581 117.619 68.8971 120.624C72.1771 123.512 75.7411 126.099 79.2721 128.52C80.5571 129.396 81.884 127.952 81.659 126.684C81.567 126.158 81.359 125.682 81.175 125.19C80.824 124.263 79.873 124.046 79.214 124.414C73.964 120.449 68.605 116.552 64.524 111.327C64.532 111.319 64.532 111.319 64.524 111.319C64.349 111.11 64.1901 110.902 64.0321 110.693C62.0371 108.03 60.393 105.059 59.341 101.921C59.7 97.9226 59.5 93.8166 58.648 89.9016C59.449 86.4046 60.927 83.1156 62.588 79.9446C64.374 76.5396 66.3021 73.2006 68.2801 69.9036C72.2031 63.3846 76.485 57.0746 81.084 51.0066C86.292 44.1376 92.168 37.8436 97.585 31.1506C98.353 30.1906 97.1761 28.9886 96.2251 29.7896C91.6261 33.6786 87.544 38.2116 83.705 42.8856C84.456 38.6536 84.9901 34.3806 85.7671 30.1406C86.2931 27.2696 86.8941 24.4066 87.5611 21.5606C91.5921 16.1106 96.851 11.5616 103.419 9.5416C103.536 9.5086 103.636 9.4496 103.736 9.3916C103.961 9.5916 104.195 9.7836 104.42 9.9926C107.934 13.1976 111.089 16.7786 113.827 20.6676C112.909 21.0686 112.007 21.5106 111.173 22.0276C110.113 22.6706 110.806 24.2816 111.999 24.0056C114.82 23.3546 117.549 22.2776 120.346 21.5016C123.143 20.7256 125.988 20.1076 128.851 19.6236C134.502 18.6466 140.253 18.2886 145.978 18.4886C157.463 18.8806 168.948 21.5606 179.364 26.4426C180.516 26.9846 181.659 27.5606 182.786 28.1536C183.036 28.6546 183.554 29.0216 184.171 28.9046C185.473 29.6136 186.75 30.3656 188.01 31.1496C189.379 32.0006 190.723 32.8936 192.033 33.8376C193.393 34.8056 194.645 36.0326 196.265 36.5006C197.392 36.8266 198.285 35.5576 197.742 34.5726C196.983 33.1866 195.622 32.3696 194.362 31.4506C193.143 30.5656 191.9 29.7146 190.631 28.9046C189.972 28.4786 189.304 28.0696 188.636 27.6606C191.674 26.7926 194.704 25.8996 197.784 25.1566C197.876 25.2646 198.001 25.3656 198.16 25.4406C205.789 29.1716 211.648 35.9906 213.818 44.2366C213.927 44.6706 214.185 44.9206 214.486 45.0466C214.436 45.4806 214.386 45.9146 214.336 46.3486C213.81 51.1146 213.301 55.8716 212.792 60.6376C212.375 59.7026 211.966 58.7676 211.54 57.8416C210.146 54.8196 208.836 51.6646 206.891 48.9606C206.198 48.0006 204.588 48.5436 204.913 49.7956C205.614 52.5336 206.874 55.0876 208.01 57.6666C209.103 60.1456 210.205 62.6326 211.249 65.1446C213.369 70.2106 215.33 75.3606 216.975 80.6026C220.197 90.9186 222.083 101.728 220.973 112.545C220.74 114.865 220.414 117.261 219.329 119.364C219.037 119.923 218.695 120.482 218.286 120.967C218.077 121.075 217.902 121.251 217.786 121.468L217.636 121.602C216.926 122.161 216.017 122.362 215.182 122.645C213.871 123.087 213.88 124.848 215.182 125.299C216.768 125.842 218.396 125.232 219.672 124.222C223.469 126.409 227.418 128.379 230.773 131.233C234.32 134.254 236.991 138.102 237.834 142.751C238.651 147.249 237.007 151.447 233.451 154.294Z" fill="#F6C280"/>
<path d="M241.016 148.25C240.999 148.327 240.98 148.403 240.961 148.48L241.148 148.315L241.016 148.25Z" fill="#F6C280"/>
<path d="M53.637 59.5517C57.423 57.9167 60.876 53.2457 58.486 49.1407C56.105 45.0497 50.722 44.7397 46.867 46.7217C45.074 47.6437 43.521 48.9377 42.174 50.4247C41.251 52.3377 40.513 54.3796 39.943 56.3996C39.616 57.5596 39.352 58.7337 39.162 59.9237C43.936 60.6497 49.1 61.5107 53.637 59.5517Z" fill="#FFDAE3"/>
<path d="M18.992 60.9986C23.023 59.7026 27.111 59.1776 31.246 59.2216C31.758 58.0726 32.495 56.9956 33.185 55.9496C33.907 54.8546 34.68 53.8015 35.492 52.7715C36.292 51.7565 37.13 50.7686 38.047 49.8556C38.398 49.5066 38.772 49.1845 39.147 48.8615C39.352 47.8045 39.447 46.7256 39.419 45.6556C39.197 37.2186 30.051 30.2665 21.844 33.0035C19.578 33.7595 18.037 35.4195 17.408 37.7155C16.728 40.1965 16.723 42.9216 16.752 45.4766C16.813 50.7686 17.824 55.8696 18.992 60.9986Z" fill="#FFA9BF"/>
<path d="M43.164 70.2436C44.89 70.8276 46.813 71.6936 48.676 71.3776C49.91 71.1686 51.438 70.2566 51.256 68.8076C51.072 67.3446 49.395 66.3506 48.22 65.7486C46.502 64.8686 44.626 64.1986 42.707 63.6796C42.077 63.5536 41.446 63.4316 40.814 63.3166C39.998 63.2056 39.188 63.0856 38.389 62.9646C35.152 62.4746 31.93 62.1186 28.651 62.2966C25.457 62.4696 22.323 63.1116 19.291 64.1216C19.153 64.1676 19.023 64.1896 18.898 64.1996C18.654 64.2926 18.407 64.3796 18.167 64.4826C16.725 65.1026 14.669 66.4066 15.054 68.2786C15.399 69.9576 17.545 70.3166 18.958 70.2036C20.953 70.0436 22.897 69.2726 24.864 68.9206C28.917 68.1946 33.025 68.1425 37.095 68.7575C39.16 69.0695 41.186 69.5746 43.164 70.2436Z" fill="#F49082"/>
<path d="M188.304 103.193C187.685 102.563 186.931 102.061 186.139 101.671C184.506 100.866 182.765 100.459 180.944 100.473C180.451 100.477 180.031 100.89 180.031 101.386C180.031 101.917 180.451 102.255 180.944 102.3C182.396 102.431 183.863 102.906 185.105 103.567C185.77 103.921 186.399 104.333 187.035 104.734C187.679 105.14 188.265 105.759 189.004 105.981C189.319 106.076 189.746 105.806 189.706 105.446C189.605 104.542 188.918 103.818 188.304 103.193Z" fill="#663829"/>
<path d="M201.609 127.835C201.233 129.037 200.591 130.038 199.773 130.906C196.893 131.282 194.122 132.575 191.593 133.953C188.905 135.414 186.385 137.133 184.014 139.061C179.323 142.884 175.242 147.616 172.329 152.933C171.778 153.926 171.286 154.961 170.86 156.029C154.209 155.979 137.557 155.92 120.914 155.886C103.828 155.844 86.751 155.804 69.674 155.77C65.351 155.77 60.969 155.962 56.653 155.678C56.269 155.611 55.894 155.544 55.51 155.478C57.154 149.635 61.186 144.744 64.524 139.636C68.046 134.227 70.968 127.667 69.173 121.466C69.09 121.182 68.998 120.907 68.898 120.623C67.754 117.41 65.543 114.53 64.524 111.325C64.532 111.317 64.532 111.317 64.524 111.317C64.274 110.507 64.098 109.681 64.032 108.83C63.648 103.847 67.145 99.4645 70.634 95.8755C77.153 89.1735 85.8 82.7465 94.989 84.4825C100.573 85.5425 104.913 89.3985 110.071 91.4765C113.017 92.6705 115.872 92.7705 119.002 92.9375C124.26 93.2125 129.485 94.0895 134.685 94.8485C146.403 96.5595 158.089 98.5625 169.607 101.317C181.359 104.13 194.012 108.563 200.005 119.054C201.525 121.709 202.544 124.914 201.609 127.835Z" fill="#F9F2D7"/>
<path d="M169.753 102.505C169.729 102.422 169.715 102.338 169.684 102.256C169.133 100.781 167.85 99.7707 166.579 98.9247C166.542 98.8997 166.502 98.8787 166.464 98.8547C165.618 98.0067 164.723 97.1707 163.699 96.5677C162.819 96.0497 161.754 95.7607 160.708 95.7387C159.89 95.4797 159.056 95.2887 158.214 95.2017C155.17 94.8867 151.96 96.9777 152.342 100.319C152.678 103.256 155.235 105.67 157.599 107.19C159.804 108.608 162.694 109.69 165.348 109.347C165.714 109.3 166.072 109.22 166.417 109.109C168.149 108.876 169.701 108.026 170.232 106.101C170.585 104.823 170.328 103.607 169.753 102.505Z" fill="#F49769"/>
<path d="M95.9071 85.9836C95.9261 85.1426 95.6321 84.3626 95.1341 83.7296C95.0651 83.4896 94.971 83.2446 94.82 82.9896C94.059 81.7076 92.506 81.4366 91.149 81.3186C89.584 81.1826 88.017 81.2876 86.469 81.5406C84.92 81.7936 83.435 82.2696 81.999 82.8986C81.018 83.3286 80.038 83.8956 79.356 84.7216C78.947 85.0576 78.559 85.4096 78.224 85.7966C77.202 86.9776 76.689 88.5256 77.335 90.0206C77.908 91.3466 79.177 92.1306 80.498 92.5816C81.476 92.9146 82.533 93.0896 83.61 93.1356C84.201 93.2906 84.8001 93.3916 85.3681 93.4346C88.2111 93.6536 91.4491 92.7216 93.4541 90.6256C94.0681 89.9846 94.561 89.2176 94.878 88.4026C95.476 87.7346 95.8861 86.9196 95.9071 85.9836Z" fill="#F49769"/>
<path d="M109.342 21.6076C108.982 19.5356 106.451 18.1606 104.929 16.9726C103.106 15.5506 101.262 14.1556 99.393 12.7936C97.755 11.6006 95.446 9.93258 93.544 11.6716C92.876 12.2826 92.58 13.1136 92.383 13.9766C92.094 15.2386 91.854 16.5136 91.606 17.7846C90.55 23.2076 89.708 28.6696 89.05 34.1546C88.99 34.6566 89.197 35.0416 89.525 35.2956C89.403 35.4546 89.272 35.6016 89.151 35.7626C88.625 36.4646 89.744 37.2646 90.339 36.6796C93.345 33.7226 96.711 31.0836 100.239 28.7796C102.006 27.6256 103.837 26.5766 105.735 25.6536C107.426 24.8326 109.748 23.9486 109.342 21.6076Z" fill="#F9F2D7"/>
<path d="M213.595 32.2845C213.115 30.6415 211.862 29.2995 210.381 28.4865C208.712 27.5705 206.794 27.2045 204.938 26.8845C202.95 26.5415 200.943 26.3225 198.927 26.2405C197.289 26.1745 195.109 25.8885 193.755 27.0365C193.08 27.6085 192.815 28.2765 192.808 28.9645C192.317 28.9135 191.776 29.3935 191.879 29.9875C192.209 31.8865 194.066 33.7375 195.35 35.0975C196.829 36.6645 198.408 38.1335 199.916 39.6715C202.757 42.5695 205.405 45.8505 206.064 49.9695C206.293 51.4015 208.288 51.1065 208.68 49.9695C210.062 45.9575 211.433 41.9415 212.795 37.9215C213.404 36.1205 214.156 34.2025 213.595 32.2845ZM207.364 45.2815C207.281 45.1085 207.21 44.9305 207.121 44.7595C207.322 44.5835 207.525 44.4105 207.712 44.2205C207.596 44.5745 207.48 44.9285 207.364 45.2815Z" fill="#F9F2D7"/>
<path d="M109.186 77.5386C109.187 77.2686 109.17 77.0047 109.145 76.7357C109.107 76.3187 109.069 75.8766 108.825 75.5186C108.632 75.2356 108.357 75.0466 108.003 75.0466C107.688 75.0466 107.324 75.2236 107.181 75.5186C107.053 75.7826 107.016 75.9726 106.981 76.2666C106.993 76.1746 107.006 76.0817 107.018 75.9897C106.984 76.1947 106.95 76.3926 106.961 76.6006C106.967 76.7126 106.974 76.8236 106.98 76.9356C106.999 77.2666 107.05 77.5927 107.1 77.9207C107.178 78.4327 107.263 79.0087 107.632 79.3857C107.672 79.4417 107.712 79.4966 107.755 79.5506C108.032 79.8926 108.598 79.7546 108.803 79.4196C108.806 79.4176 108.809 79.4146 108.812 79.4126C108.947 79.2886 109.008 79.1157 109.063 78.9467C109.113 78.7927 109.133 78.6336 109.155 78.4736C109.198 78.1646 109.185 77.8496 109.186 77.5386Z" fill="#E0AA70"/>
<path d="M111.738 76.2926C111.67 75.9046 111.566 75.5616 111.302 75.2596C111.132 75.0656 110.832 75.1056 110.656 75.2596C110.041 75.7976 110.019 76.7026 110.003 77.4546C109.988 78.1566 109.973 78.8586 109.958 79.5616C109.949 79.9576 110.312 80.3356 110.714 80.3176C111.161 80.2976 111.423 79.9836 111.47 79.5616C111.548 78.8596 111.627 78.1566 111.705 77.4546C111.75 77.0616 111.807 76.6866 111.738 76.2926Z" fill="#E0AA70"/>
<path d="M119.524 77.2985C119.248 77.1825 118.873 77.2265 118.664 77.4615C118.473 77.6765 118.341 77.9515 118.212 78.2075C118.074 78.4835 117.981 78.7885 117.874 79.0785C117.701 79.5465 117.528 80.0155 117.355 80.4835C117.288 80.6655 117.334 80.9555 117.438 81.1165C117.536 81.2695 117.663 81.3815 117.831 81.4525C118.17 81.5955 118.695 81.4925 118.857 81.1165C119.055 80.6585 119.252 80.2005 119.45 79.7425C119.568 79.4695 119.714 79.1915 119.805 78.9095C119.895 78.6295 119.999 78.3115 120.009 78.0185C120.019 77.7055 119.802 77.4155 119.524 77.2985Z" fill="#E0AA70"/>
<path d="M122.042 79.5056C121.883 79.4216 121.692 79.4416 121.56 79.5676L121.403 79.7186C121.333 79.7856 121.278 79.8636 121.224 79.9436C121.145 80.0606 121.067 80.1766 120.988 80.2936C120.831 80.5266 120.674 80.7606 120.516 80.9936C120.44 81.1066 120.426 81.2876 120.461 81.4156C120.496 81.5426 120.594 81.6806 120.713 81.7426C120.967 81.8766 121.319 81.8166 121.463 81.5456C121.595 81.2976 121.726 81.0486 121.858 80.8006C121.924 80.6766 121.99 80.5526 122.056 80.4286C122.137 80.2766 122.18 80.1186 122.226 79.9546C122.271 79.7916 122.196 79.5866 122.042 79.5056Z" fill="#E0AA70"/>
<path d="M125.984 79.5675C125.851 79.4975 125.7 79.5175 125.589 79.6185C125.467 79.7285 125.34 79.8355 125.222 79.9505C125.101 80.0685 124.998 80.2105 124.889 80.3395C124.673 80.5965 124.456 80.8535 124.24 81.1105C124.128 81.2435 124.064 81.3795 124.057 81.5535C124.048 81.7485 124.154 81.9295 124.304 82.0445C124.585 82.2615 125.05 82.2055 125.224 81.8685C125.383 81.5605 125.542 81.2515 125.701 80.9435C125.79 80.7705 125.892 80.5985 125.962 80.4165C126.023 80.2575 126.077 80.0955 126.134 79.9345C126.179 79.8055 126.104 79.6305 125.984 79.5675Z" fill="#E0AA70"/>
<path d="M59.408 117.86C60.189 116.901 60.9931 115.895 61.2641 114.689C61.8391 112.129 59.901 109.781 58.735 107.431C56.6 103.126 56.981 98.0735 56.727 93.2755C56.473 88.4775 55.155 83.1435 51.036 80.6705C47.559 78.5825 42.8931 79.2505 39.5661 81.5675C36.2381 83.8845 34.095 87.5805 32.766 91.4115C30.093 99.1225 30.374 107.612 32.177 115.571C33.138 119.81 36.5581 136.983 42.0661 137.246C45.2731 137.399 48.663 131.055 50.459 128.85C53.441 125.187 56.425 121.523 59.408 117.86Z" fill="#AA9380"/>
<path d="M198.392 132.779C198.954 139.85 202.173 146.679 207.271 151.613C212.368 156.547 219.298 159.541 226.384 159.872C223.524 162.696 218.994 162.843 215.013 162.291C211.032 161.739 206.949 160.672 203.063 161.698C198.775 162.83 195.549 166.292 191.677 168.456C188.721 170.109 185.259 171.007 181.912 170.488C178.565 169.97 175.386 167.903 173.971 164.826C171.992 160.522 173.732 155.431 176.117 151.338C180.021 144.638 185.669 138.964 192.352 135.03" fill="#AA9380"/>
<path d="M61.254 112.255C61.268 111.232 60.825 110.146 60.513 109.164C60.372 108.489 60.162 107.831 59.892 107.192C59.8 106.901 59.711 106.609 59.617 106.318C59.61 106.236 59.595 106.153 59.589 106.072C59.566 105.784 59.46 105.543 59.309 105.349C58.597 103.194 57.824 101.061 57.008 98.9427C57.019 94.1027 55.979 88.6647 53.133 84.7577C51.634 82.7007 49.577 81.0267 47.093 80.3367C45.95 80.0187 44.599 79.8437 43.436 80.1817C42.066 80.5797 41.089 81.9027 41.407 83.3507C41.903 85.6037 44.833 86.2817 46.379 87.6437C48.121 89.1777 49.438 91.1487 50.32 93.2907C52.789 99.2847 51.782 106 50.671 112.178C50.634 112.382 50.635 112.574 50.657 112.756C50.514 113.151 50.374 113.547 50.246 113.949C49.914 114.992 51.356 115.84 52.099 115.028C52.35 114.753 52.582 114.462 52.804 114.163C53.134 114.052 53.448 113.827 53.696 113.453C54.493 112.252 55.1 110.977 55.558 109.658C55.624 109.844 55.701 110.025 55.77 110.21C55.926 111.582 56.483 112.885 57.425 113.934C57.462 114.029 57.499 114.124 57.531 114.22C57.244 114.719 57.178 115.361 57.52 115.839C57.996 116.504 58.521 116.876 59.369 116.871C60.21 116.866 61.042 116.13 60.993 115.247C60.965 114.746 60.87 114.276 60.739 113.821C61.062 113.385 61.246 112.827 61.254 112.255Z" fill="#917B6B"/>
<path d="M215.006 158.337C211.856 159.168 208.463 158.953 205.466 157.645C204.224 157.103 203.139 156.18 201.921 155.59C201.598 154.888 201.104 154.259 200.426 153.742C199.902 153.343 198.829 153.48 198.416 154.001C197.577 155.058 196.735 156.214 195.867 157.389C195.812 157.461 195.758 157.534 195.705 157.608C192.704 161.658 189.349 165.895 184.551 167.198C183.844 167.14 183.132 166.963 182.428 166.639C178.943 165.033 177.157 161.381 175.916 157.955C175.914 157.949 175.909 157.945 175.907 157.939C175.949 157.871 175.982 157.798 176.027 157.731C176.594 156.888 175.479 155.821 174.644 156.348C174.424 156.487 174.235 156.646 174.044 156.805C173.456 156.862 172.917 157.212 172.734 157.954C172.684 158.158 172.658 158.362 172.621 158.565C171.904 159.965 171.744 161.644 172.012 163.29C172.461 166.048 174.304 168.393 176.804 169.612C177.594 169.997 178.392 170.274 179.192 170.466C180.165 170.923 181.2 171.263 182.28 171.442C189.121 172.575 195.376 168.799 199.474 163.565C200.432 162.34 201.474 161.01 202.001 159.513C202.535 159.841 203.077 160.153 203.65 160.417C207.486 162.184 211.792 162.586 215.881 161.505C217.922 160.966 217.056 157.796 215.006 158.337Z" fill="#917B6B"/>
<path fill-rule="evenodd" clip-rule="evenodd" d="M241.303 145.983C241.5 145.93 241.702 145.888 241.906 145.857C241.866 145.87 241.826 145.884 241.787 145.897C241.689 145.931 241.594 145.965 241.5 146C241.395 150.114 238.017 156.633 229.212 161.624C222.293 163.802 209.918 163.871 203 163.5L198.625 167.875C198.6 167.872 198.576 167.87 198.552 167.867C198.5 167.861 198.449 167.855 198.397 167.848C196.075 169.77 193.43 171.265 190.574 172.246C185.324 174.048 178.394 174.272 173.756 170.786C172.188 169.607 171.081 168.066 170.4 166.327C170.39 166.328 170.38 166.328 170.37 166.328C170.357 165.901 170.34 165.423 170.321 164.913C170.216 162.034 170.074 158.125 170.502 156.5C170.631 156.331 170.707 156.169 170.73 156.015C170.738 156.015 170.745 156.015 170.753 156.015L170.838 156.016C171.261 154.949 171.759 153.911 172.303 152.919C175.221 147.604 179.301 142.866 183.996 139.042C186.364 137.113 188.882 135.393 191.567 133.936C194.17 132.523 197.023 131.202 199.984 130.856C200.926 130.746 201.131 132.101 200.438 132.533C199.09 133.374 197.667 134.088 196.244 134.804C194.977 135.44 193.71 136.077 192.492 136.803C189.916 138.342 187.472 140.109 185.223 142.096C181.155 145.691 177.663 149.975 175.075 154.755C174.634 155.569 174.231 156.422 173.887 157.296C174.014 157.919 173.826 158.615 173.317 159.007C172.955 160.353 172.79 161.741 172.957 163.145C173.27 165.777 174.766 167.831 177.138 168.981C181.523 171.106 187.279 170.308 191.552 168.306C193.819 167.244 195.894 165.825 197.666 164.055C198.57 163.153 199.392 162.178 200.101 161.115C200.339 160.758 200.557 160.396 200.773 160.037C201.191 159.344 201.605 158.658 202.148 158.029C203.18 156.834 204.698 158.168 204.513 159.406C204.457 159.779 204.356 160.141 204.227 160.495L204.255 160.498C204.391 160.509 204.527 160.52 204.683 160.542C205.389 160.645 206.094 160.737 206.805 160.805C208.275 160.945 209.751 161.01 211.227 161.001C214.158 160.982 217.074 160.669 219.939 160.044C224.626 159.021 229.645 157.321 233.434 154.28C236.982 151.432 238.629 147.231 237.812 142.732C236.969 138.087 234.295 134.241 230.747 131.22C228.062 128.934 224.988 127.211 221.92 125.491L221.92 125.491C221.16 125.065 220.401 124.639 219.648 124.205C218.369 125.218 216.745 125.826 215.156 125.28C213.855 124.833 213.847 123.068 215.156 122.626C215.323 122.57 215.492 122.517 215.662 122.464L215.664 122.463C216.349 122.248 217.045 122.03 217.614 121.583L217.76 121.448C217.881 121.234 218.051 121.056 218.26 120.947C218.677 120.463 219.016 119.909 219.307 119.348C220.393 117.249 220.716 114.851 220.954 112.531C222.064 101.713 220.175 90.9025 216.951 80.5895C215.311 75.3425 213.347 70.1955 211.229 65.1255C210.192 62.6434 209.107 60.1819 208.022 57.7215L208.02 57.7185L207.989 57.6475C207.795 57.2079 207.597 56.768 207.4 56.3285C206.439 54.1927 205.474 52.0465 204.892 49.7785C204.571 48.5245 206.181 47.9865 206.871 48.9445C208.536 51.2581 209.733 53.8944 210.915 56.4959L210.915 56.4961L210.915 56.4962C211.116 56.9396 211.317 57.3819 211.52 57.8215C211.87 58.5813 212.209 59.3471 212.547 60.1129L212.633 60.3065L212.772 60.6215C213.281 55.8575 213.792 51.0945 214.321 46.3325C214.346 46.1061 214.371 45.8794 214.396 45.6526L214.396 45.6512L214.396 45.6488L214.429 45.3524L214.464 45.0315C214.164 44.9025 213.909 44.6515 213.796 44.2225C211.63 35.9755 205.77 29.1535 198.144 25.4255C197.981 25.3455 197.857 25.2465 197.764 25.1375C194.993 25.8074 192.259 26.5964 189.524 27.3856C189.221 27.473 188.919 27.5603 188.616 27.6475C189.286 28.0505 189.951 28.4625 190.609 28.8845C191.877 29.6995 193.123 30.5495 194.344 31.4345C194.522 31.5633 194.702 31.6903 194.881 31.8171L194.881 31.8173L194.883 31.8182C195.978 32.5917 197.07 33.3631 197.724 34.5585C198.262 35.5415 197.371 36.8085 196.244 36.4835C195.029 36.1329 194.023 35.3519 193.022 34.5747C192.69 34.3166 192.358 34.0588 192.019 33.8175C190.704 32.8805 189.359 31.9835 187.989 31.1285C186.732 30.3445 185.451 29.5985 184.153 28.8835C183.537 29.0045 183.015 28.6345 182.766 28.1405C181.637 27.5455 180.498 26.9695 179.343 26.4275C168.932 21.5415 157.446 18.8645 145.961 18.4705C140.234 18.2735 134.484 18.6325 128.835 19.6015C125.968 20.0935 123.127 20.7075 120.324 21.4865C119.169 21.8076 118.025 22.1791 116.88 22.5507C115.259 23.077 113.636 23.6036 111.984 23.9875C110.787 24.2655 110.092 22.6565 111.15 22.0095C111.992 21.4945 112.887 21.0495 113.808 20.6465C111.072 16.7605 107.917 13.1775 104.405 9.9735C104.278 9.85773 104.147 9.74619 104.016 9.63484L104.016 9.63476C103.915 9.54905 103.814 9.46331 103.715 9.37549L103.697 9.38606C103.603 9.43958 103.51 9.49272 103.401 9.52649C96.829 11.5425 91.574 16.0905 87.539 21.5425C86.877 24.3905 86.273 27.2505 85.745 30.1265C85.3342 32.3624 84.9929 34.6092 84.6516 36.8551L84.6516 36.8552L84.6516 36.8553C84.3465 38.8631 84.0415 40.8705 83.687 42.8695C87.526 38.1915 91.607 33.6615 96.206 29.7745C97.159 28.9685 98.334 30.1745 97.561 31.1305C95.3425 33.8738 93.047 36.5493 90.7517 39.2247C87.4437 43.0805 84.136 46.9359 81.059 50.9935C76.459 57.0575 72.184 63.3685 68.26 69.8895C66.277 73.1845 64.351 76.5225 62.566 79.9305C60.905 83.0995 59.427 86.3865 58.624 89.8835C59.478 93.8005 59.674 97.9055 59.322 101.902C60.373 105.04 62.015 108.011 64.01 110.678C67.9096 115.893 73.0724 119.786 78.2172 123.665L78.2279 123.673L78.2338 123.677C78.5534 123.918 78.8729 124.159 79.192 124.4C79.856 124.028 80.8 124.25 81.151 125.172C81.1669 125.214 81.1829 125.256 81.199 125.297C81.2155 125.339 81.232 125.381 81.2484 125.423L81.2486 125.424C81.4075 125.83 81.5638 126.23 81.641 126.663C81.867 127.933 80.533 129.38 79.25 128.501C72.02 123.547 64.67 117.895 59.84 110.464C59.317 109.659 58.831 108.835 58.381 107.996C58.258 108.538 58.125 109.077 57.979 109.615C57.656 110.807 57.289 111.987 56.819 113.13C56.5227 113.852 56.1304 114.528 55.7384 115.204L55.7383 115.204C55.5682 115.497 55.3982 115.791 55.236 116.087C54.542 117.357 52.373 116.476 52.876 115.092C53.1135 114.439 53.2914 113.775 53.4695 113.11C53.6079 112.593 53.7464 112.076 53.913 111.563C54.276 110.446 54.635 109.334 54.927 108.197C55.435 106.216 55.787 104.203 55.982 102.171C54.826 98.2565 54.51 94.1445 55.271 90.0335C55.141 89.5185 54.997 89.0075 54.835 88.5025C53.903 85.5895 52.151 82.4745 49.096 81.4035C45.698 80.2115 41.938 81.6615 39.453 84.0675C36.727 86.7085 35.189 90.3385 34.145 93.9245C32.973 97.9525 32.479 102.126 32.517 106.316C32.595 114.893 34.832 123.275 38.136 131.147C39.81 135.136 41.744 139.018 43.787 142.829C44.6381 144.417 45.5231 145.986 46.4079 147.554C47.4077 149.327 48.4074 151.099 49.358 152.897C50.392 153.924 51.625 154.589 52.967 155.016C53.7433 155.153 54.5199 155.291 55.2966 155.429C52.5222 155.388 50.439 155.274 49.2229 155.065C47.2125 153.222 45.6784 151.432 44.4356 149.982C44.1883 149.693 43.9526 149.418 43.727 149.159L43.818 149.158C42.385 146.691 41.016 144.185 39.686 141.675C37.236 137.051 35.021 132.296 33.246 127.368C30.085 118.595 28.384 109.049 29.592 99.7365C30.641 91.6475 33.741 81.8145 42.045 78.5435C45.822 77.0555 50.085 77.4905 53.283 80.0445C54.813 81.2665 55.967 82.8745 56.841 84.6375C57.81 82.1095 59.03 79.6695 60.311 77.2985C60.5485 76.8591 60.7953 76.4246 61.042 75.9902C61.1985 75.7147 61.355 75.4392 61.509 75.1625C61.488 75.0685 61.475 74.9725 61.473 74.8745C61.444 73.2045 61.013 71.5035 60.277 69.9935C59.869 69.1555 59.361 68.3885 58.809 67.6405C58.6954 67.4863 58.5711 67.3341 58.4454 67.1801C58.0014 66.6363 57.5397 66.0708 57.468 65.3195C57.428 64.9025 57.829 64.6395 58.185 64.6025C59.262 64.4925 60.22 65.4885 60.885 66.2275C61.573 66.9915 62.172 67.8715 62.655 68.7775C63.09 69.5935 63.42 70.4595 63.679 71.3465C63.7224 71.2727 63.7668 71.1997 63.8111 71.1266L63.8121 71.1251C63.8563 71.0524 63.9008 70.979 63.944 70.9055C63.819 70.8295 63.701 70.7285 63.606 70.5775C63.1634 69.8753 63.0932 68.8471 63.0344 67.9848C63.0264 67.8672 63.0185 67.7527 63.01 67.6425C62.9592 66.9888 62.917 66.3342 62.8749 65.6796L62.8749 65.6794L62.8749 65.6792L62.8747 65.6764C62.8548 65.3668 62.8349 65.057 62.814 64.7475C62.7046 63.1244 62.644 61.4992 62.5835 59.8737L62.5834 59.8725L62.5834 59.8713C62.572 59.5667 62.5607 59.2621 62.549 58.9575C62.529 58.4345 63.007 57.9925 63.514 57.9925C64.083 57.9925 64.413 58.4405 64.479 58.9575L64.5275 59.337C64.7765 61.2873 65.0255 63.2364 65.217 65.1935C65.2464 65.4946 65.2785 65.796 65.3106 66.0974L65.3106 66.0975L65.3106 66.0976C65.3891 66.8341 65.4677 67.5715 65.5061 68.3095C65.6138 68.1323 65.7198 67.954 65.8258 67.7758L65.8262 67.7751L65.8266 67.7745C65.978 67.52 66.1298 67.2648 66.286 67.0135C70.505 60.2245 75.111 53.6835 80.051 47.4015C80.516 46.8105 80.986 46.2195 81.456 45.6295C81.31 45.4645 81.209 45.2555 81.207 44.9985C81.168 38.7025 82.352 32.3775 83.55 26.2115C84.632 20.6455 85.964 15.1305 87.552 9.68749C87.648 9.35862 87.7458 9.00716 87.8478 8.64017C88.9126 4.81248 90.4476 -0.705652 95.321 0.0744975C97.4617 0.416944 99.4166 1.89584 101.168 3.22086C101.411 3.40485 101.651 3.58588 101.886 3.76049C103.877 5.23849 105.796 6.81249 107.615 8.49749C111.152 11.7715 114.271 15.4685 117.004 19.4345C118.216 19.0365 119.437 18.6855 120.63 18.3485C123.84 17.4415 127.104 16.7305 130.403 16.2395C142.262 14.4745 154.437 15.1225 166.037 18.1675C171.849 19.6925 177.51 21.8225 182.889 24.5025C183.659 24.8865 184.422 25.2855 185.18 25.6935C190.001 23.7095 195.164 22.4095 200.234 21.3355C202.884 20.7745 205.552 20.2965 208.233 19.9115C210.299 19.6145 212.434 19.3825 214.483 19.9305C216.576 20.4895 218.204 21.9215 218.97 23.9515C219.736 25.9817 219.497 28.2211 219.271 30.3281L219.265 30.3865C218.762 35.0872 218.269 39.7888 217.777 44.4904L217.776 44.4925L217.776 44.4947L217.775 44.5059L217.774 44.5146C217.103 50.918 216.432 57.3214 215.735 63.7225C215.663 64.3805 215.326 64.9655 214.763 65.2265C214.865 65.4708 214.969 65.7143 215.073 65.9579L215.074 65.9588L215.074 65.9597L215.074 65.9607L215.075 65.9631C215.216 66.2931 215.357 66.623 215.494 66.9545C219.933 77.7075 223.475 88.9705 224.389 100.624C224.61 103.449 224.667 106.285 224.534 109.116C224.408 111.809 224.213 114.599 223.58 117.227C223.182 118.879 222.556 120.513 221.63 121.947C226.453 124.068 231.12 126.804 234.843 130.527C238.55 134.235 241.091 139.158 241.322 144.453C241.345 144.972 241.333 145.48 241.303 145.983ZM240.941 148.464C240.948 148.432 240.956 148.401 240.964 148.37L240.964 148.367C240.975 148.323 240.986 148.278 240.996 148.233L241.129 148.298L240.941 148.464Z" fill="#663829"/>
<path d="M128.637 89.7985C127.567 89.8195 126.52 89.7615 125.445 89.8295C124.379 89.8975 123.312 89.9424 122.243 89.9424C120.236 89.9414 118.241 89.8305 116.284 89.3595C114.684 88.9755 113.153 88.3724 111.76 87.4904C111.052 87.0414 110.4 86.5235 109.811 85.9275C109.225 85.3335 108.828 84.5905 108.24 84.0105C107.474 83.2545 105.95 84.0095 106.344 85.1145C106.471 85.4715 106.659 85.8125 106.875 86.1435L106.818 86.1665C106.164 86.4995 106.029 87.2575 106.382 87.8585C106.609 88.2455 106.889 88.5674 107.125 88.9434C107.36 89.3174 107.599 89.6775 107.82 90.0615C108.245 90.7975 108.661 91.5334 109.064 92.2834C109.466 93.0324 109.869 93.7814 110.271 94.5304C110.64 95.2174 111.086 95.8315 111.537 96.4575C111.076 97.9265 110.415 99.3405 109.783 100.739C109.426 101.531 109.014 102.292 108.602 103.057C108.137 103.919 107.207 104.917 107.61 105.94C107.828 106.494 108.385 106.9 108.997 106.845C109.87 106.766 110.247 106.155 110.632 105.457C110.848 105.066 111.053 104.669 111.247 104.267C111.444 103.86 111.615 103.44 111.776 103.016C111.997 103.927 112.312 104.805 112.743 105.649C113.271 106.684 114.362 108.756 115.76 108.485C116.324 108.376 116.752 108.076 116.891 107.486C117.09 106.642 116.559 106.121 116.126 105.56C115.806 105.146 115.519 104.705 115.26 104.251C114.856 103.543 114.471 102.482 114.308 101.679C114.226 101.274 114.182 100.877 114.158 100.483L114.164 100.461C114.222 100.078 114.299 99.6934 114.408 99.3224C114.415 99.2974 114.521 99.0025 114.437 99.2245C114.471 99.1335 114.504 99.0424 114.541 98.9524C114.614 98.7724 114.695 98.5965 114.783 98.4235L114.864 98.2794L114.941 98.1414L115.068 97.9165L115.092 97.8735L115.103 97.8595C115.158 97.7795 115.215 97.6995 115.273 97.6215C115.496 97.3225 115.741 97.0395 116.007 96.7765L116.177 96.6154L116.316 96.4975C116.467 96.3735 116.623 96.2585 116.781 96.1445C117.083 95.9265 117.374 95.7005 117.689 95.5015C118.299 95.1145 118.858 94.8555 119.598 94.7555C119.816 94.7255 119.963 94.6175 120.053 94.4795C120.56 94.3345 121.071 94.2045 121.58 94.0715C121.772 94.1205 121.964 94.1345 122.195 94.0825C122.355 94.0465 122.515 93.9845 122.672 93.9365C122.99 93.8385 123.308 93.7415 123.626 93.6445C123.866 93.5705 124.105 93.4924 124.345 93.4174L124.498 93.3824C124.692 93.3424 124.878 93.2785 125.048 93.1955C125.208 93.1445 125.37 93.0965 125.529 93.0435C126.232 92.8125 126.91 92.5435 127.592 92.2555C128.225 91.9875 128.696 91.6294 129.199 91.1714C129.406 90.9834 129.39 90.6075 129.199 90.4115C129.199 90.1045 128.998 89.7915 128.637 89.7985Z" fill="#663829"/>
<path d="M154.541 88.3554C153.913 88.2354 153.294 88.2344 152.697 88.3214L152.672 88.3154C150.565 87.9954 148.641 89.4184 147.741 91.2434C146.185 94.3974 147.505 98.5824 150.849 99.9234C152.396 100.544 154.21 100.666 155.765 99.9884C157.329 99.3064 158.561 98.0114 159.125 96.3954C159.738 94.6414 159.629 92.7864 158.664 91.1774C157.793 89.7224 156.196 88.6724 154.541 88.3554Z" fill="#663829"/>
<path d="M96.049 74.4655C95.421 74.3455 94.802 74.3445 94.204 74.4315L94.1799 74.4255C92.0729 74.1065 90.149 75.5285 89.249 77.3535C87.693 80.5075 89.0129 84.6925 92.3569 86.0335C93.9039 86.6545 95.718 86.7765 97.273 86.0985C98.837 85.4165 100.069 84.1216 100.633 82.5056C101.246 80.7516 101.137 78.8965 100.173 77.2875C99.302 75.8325 97.704 74.7825 96.049 74.4655Z" fill="#663829"/>
<path d="M19.846 72.7394C22.217 72.3864 24.487 71.5614 26.869 71.2254C29.189 70.8974 31.559 70.8454 33.895 71.0084C36.306 71.1764 38.691 71.6194 41.007 72.3054C43.242 72.9674 45.422 74.0044 47.793 74.0574C51.619 74.1424 55.373 70.6674 53.344 66.7714C53 66.1114 52.515 65.5294 51.956 65.0154C52.109 64.7094 52.068 64.3334 51.669 64.1544C51.217 63.9514 50.755 63.7604 50.294 63.5694C52.411 63.2764 54.471 62.6614 56.399 61.5354C60.926 58.8904 63.797 53.0954 61.367 48.0974C58.97 43.1684 52.824 41.4664 47.859 43.0254C45.831 43.6624 43.981 44.7244 42.351 46.0654C42.332 41.4924 40.336 37.0934 36.885 34.0484C33.187 30.7854 28.193 29.0714 23.278 29.8554C20.669 30.2714 18.09 31.4764 16.467 33.6164C14.74 35.8954 14.415 38.8234 14.26 41.5924C13.883 48.3524 14.72 55.5424 17.611 61.7274C16.39 62.1254 15.178 62.5554 13.992 63.0574C13.986 62.9014 13.979 62.7504 13.974 62.6154C13.939 61.7564 13.861 60.8954 13.773 60.0404C13.681 59.1394 13.543 58.2444 13.398 57.3514C13.382 57.2534 13.372 57.1404 13.359 57.0364C13.635 56.7914 13.88 56.5104 14.034 56.1704C14.148 55.9904 14.21 55.7964 14.219 55.5884C14.266 55.3804 14.256 55.1724 14.191 54.9644C14.099 54.6304 13.851 54.2774 13.548 54.0834C13.41 53.2924 12.875 52.5534 12.161 52.1994C11.414 51.8284 10.48 51.6754 9.685 52.0004C9.468 52.0884 9.25104 52.1684 9.06104 52.3054C8.71704 52.5534 8.54 52.7354 8.289 53.0764C8.068 53.3764 7.91699 53.7494 7.85699 54.1164C7.77199 54.6404 7.76301 55.1254 7.90601 55.6454C8.04701 56.1534 8.296 56.5694 8.63 56.9684C8.985 57.3924 9.46999 57.6604 9.98499 57.8394C10.367 57.9724 10.766 57.9964 11.162 57.9674C11.34 58.7504 11.49 59.5404 11.645 60.3284C11.805 61.1434 11.941 61.9624 12.067 62.7844C12.079 62.8644 12.092 62.9614 12.104 63.0544C11.863 62.9204 11.622 62.7864 11.381 62.6524C10.591 62.2124 9.80703 61.7594 9.00903 61.3334C7.40903 60.4784 5.80098 59.6584 4.07098 59.1084C3.99998 59.0074 3.92802 58.9054 3.84802 58.8154L3.72101 58.6944C3.59501 58.5924 3.46503 58.4764 3.31903 58.4004C3.16803 58.3224 3.006 58.2484 2.841 58.2034C2.678 58.1594 2.502 58.1434 2.336 58.1304L2.15302 58.1364L2.10999 58.1304C1.99099 58.1294 1.86401 58.1574 1.74701 58.1764C1.54001 58.2104 1.30402 58.2914 1.13202 58.3994C0.953019 58.5124 0.772991 58.6464 0.627991 58.8034C0.483991 58.9584 0.340995 59.1354 0.244995 59.3274C0.0879951 59.6404 0.021 59.9274 0 60.2784L0.00500488 60.4414C0.0210049 60.6034 0.0359844 60.7774 0.0839844 60.9354C0.128984 61.0824 0.19501 61.2264 0.26001 61.3634L0.35199 61.5254C0.47099 61.6984 0.605043 61.8844 0.769043 62.0214C0.938043 62.1624 1.11101 62.3054 1.31201 62.3974C1.45101 62.4614 1.59504 62.5284 1.74304 62.5724C1.90304 62.6204 2.07501 62.6334 2.23901 62.6514C2.45401 62.6754 2.68503 62.6394 2.89203 62.5924C3.04603 62.5564 3.19799 62.4824 3.33899 62.4164L3.479 62.3374C3.759 62.1404 3.91504 61.9824 4.11304 61.7024C4.17504 61.6164 4.22301 61.5194 4.26501 61.4204C5.33001 62.2544 6.47001 62.9834 7.62701 63.6984C8.39601 64.1734 9.18198 64.6234 9.95898 65.0854C10.322 65.3014 10.684 65.5174 11.047 65.7324C11.524 66.0164 11.99 66.3504 12.555 66.3664C11.975 68.2114 12.505 70.1894 14.017 71.4304C15.676 72.7944 17.781 73.0474 19.846 72.7394ZM42.153 50.4084C43.5 48.9214 45.053 47.6274 46.846 46.7054C50.701 44.7234 56.084 45.0334 58.465 49.1244C60.855 53.2304 57.402 57.9014 53.616 59.5354C49.079 61.4944 43.915 60.6334 39.14 59.9074C39.33 58.7174 39.594 57.5434 39.921 56.3834C40.492 54.3634 41.23 52.3214 42.153 50.4084ZM16.732 45.4614C16.702 42.9064 16.708 40.1814 17.388 37.7004C18.017 35.4044 19.558 33.7444 21.824 32.9884C30.03 30.2514 39.177 37.2034 39.399 45.6404C39.427 46.7114 39.331 47.7894 39.127 48.8474C38.752 49.1704 38.378 49.4924 38.027 49.8414C37.11 50.7544 36.273 51.7424 35.472 52.7574C34.659 53.7874 33.887 54.8404 33.165 55.9354C32.475 56.9814 31.738 58.0584 31.226 59.2074C27.092 59.1634 23.003 59.6884 18.972 60.9844C17.804 55.8544 16.793 50.7524 16.732 45.4614ZM15.033 68.2634C14.648 66.3914 16.704 65.0884 18.146 64.4674C18.385 64.3644 18.633 64.2774 18.877 64.1844C19.002 64.1744 19.132 64.1524 19.27 64.1064C22.302 63.0964 25.436 62.4544 28.63 62.2814C31.91 62.1034 35.131 62.4594 38.368 62.9494C39.168 63.0704 39.977 63.1904 40.793 63.3014C41.425 63.4174 42.056 63.5384 42.686 63.6644C44.605 64.1824 46.481 64.8534 48.199 65.7334C49.374 66.3354 51.051 67.3294 51.235 68.7924C51.417 70.2404 49.889 71.1534 48.655 71.3624C46.792 71.6774 44.869 70.8114 43.143 70.2284C41.165 69.5594 39.139 69.0544 37.073 68.7424C33.003 68.1274 28.895 68.1794 24.842 68.9054C22.875 69.2574 20.931 70.0284 18.936 70.1884C17.525 70.3014 15.378 69.9424 15.033 68.2634Z" fill="#663829"/>
<path d="M198.227 97.5137C196.133 96.9637 193.985 96.6497 191.825 96.5277C189.726 96.4097 187.62 96.4897 185.535 96.7557C184.496 96.8887 183.466 97.0777 182.446 97.3157C181.445 97.5497 180.34 97.7827 179.603 98.5427C179.116 99.0447 179.31 99.9737 180.026 100.145C180.957 100.368 181.859 100.096 182.78 99.9197C183.756 99.7337 184.732 99.5747 185.719 99.4617C187.684 99.2377 189.665 99.1767 191.64 99.2927C193.611 99.4077 195.578 99.7037 197.503 100.143C198.467 100.363 199.42 100.624 200.38 100.859C201.224 101.066 202.116 101.377 202.976 101.131C203.419 101.004 203.619 100.496 203.397 100.096C202.531 98.5437 199.821 97.9327 198.227 97.5137Z" fill="#663829"/>
</svg>
