<svg width="270" height="284" viewBox="0 0 270 284" fill="none" xmlns="http://www.w3.org/2000/svg">
<path d="M257.561 81.5741L257.558 81.5781C257.555 81.5821 257.554 81.5841 257.551 81.5881C257.551 81.5881 257.553 81.5861 257.554 81.5841C257.559 81.5761 257.557 81.5801 257.561 81.5741Z" fill="#F9F2D7"/>
<path d="M72.9732 219.939C72.7742 219.791 72.6392 219.569 72.6662 219.257C72.7492 218.316 72.8202 217.37 72.8852 216.423C72.8832 215.395 72.8962 214.367 72.9412 213.339C72.9892 212.258 73.0352 211.166 73.1462 210.086C73.1892 206.582 73.0482 203.077 72.6202 199.619C72.2152 196.345 71.5732 193.093 70.7042 189.911C70.2762 188.342 69.7942 186.786 69.2872 185.242C68.7972 183.749 68.2302 182.219 68.2952 180.627C68.3152 180.157 68.6502 179.849 69.0382 179.791C65.4662 173.214 59.6652 167.992 52.4392 165.699C48.2162 164.359 43.7002 163.963 39.3052 164.542C34.8962 165.122 30.8842 166.87 26.7382 168.352C25.9252 168.642 25.3912 167.529 25.9322 166.968C27.1932 165.661 28.6922 164.631 30.3222 163.816C28.5992 164.065 26.9042 164.44 25.2332 164.948C17.9102 167.174 11.5412 171.91 7.57723 178.491C5.61123 181.754 4.26623 185.348 3.55223 189.089C2.86723 192.675 3.20623 196.266 2.92023 199.868C4.06723 199.782 5.35323 200.129 6.43723 200.189C7.88823 200.269 9.34423 200.273 10.7942 200.175C13.4752 199.993 16.1352 199.446 18.6962 198.6C18.7772 198.171 19.1142 197.789 19.6042 197.82C19.9132 197.84 20.2222 197.882 20.5302 197.934C22.1752 197.283 23.7722 196.513 25.2892 195.619C27.5242 194.303 29.5462 192.727 31.4332 190.951C32.3822 190.058 33.2412 189.081 34.1562 188.156C34.6452 187.662 35.1352 187.168 35.5952 186.646C35.9602 186.232 36.2892 185.814 36.8642 185.732C37.2672 185.675 37.6342 185.829 37.7622 186.242C38.0102 187.036 37.5212 187.735 37.1562 188.411C36.8012 189.067 36.4372 189.726 35.9962 190.327C35.0642 191.596 34.0022 192.782 32.8442 193.849C30.6222 195.896 28.1112 197.641 25.4262 199.057C26.6092 199.258 27.7932 199.386 29.0012 199.426C32.0552 199.527 35.0742 199.073 37.9502 198.048C38.7792 197.067 40.0212 196.609 41.3002 196.541C42.8522 195.682 44.3112 194.643 45.6222 193.47C46.6612 192.541 47.6372 191.531 48.5262 190.458C49.0022 189.884 49.5012 189.328 49.9712 188.751C50.4322 188.186 50.7712 187.545 51.4272 187.184C52.1162 186.804 52.9312 187.285 52.9572 188.062C53.0062 189.509 51.7202 191.235 50.8622 192.341C49.8702 193.62 48.7762 194.795 47.5532 195.855C46.8242 196.487 46.0642 197.072 45.2792 197.621C46.2922 198.3 47.1202 199.248 47.7342 200.328C48.7632 202.14 49.1892 204.184 49.5922 206.206C50.1382 207.626 50.6852 209.045 51.2232 210.467C53.6952 216.996 56.0532 223.904 60.7402 229.234C64.7022 233.74 70.2322 236.73 76.1382 237.676C74.5782 232.698 73.5712 227.562 73.1332 222.358C73.0672 221.553 73.0142 220.746 72.9732 219.939Z" fill="#F6C280"/>
<path d="M240.478 252.056C242.874 252.557 245.252 251.989 247.631 251.714C249.834 251.464 252.171 251.28 254.35 251.781C257.321 252.457 260.885 254.711 261.052 258.091C261.253 262.223 256.937 264.518 253.49 265.261C248.916 266.263 243.958 266.196 239.301 266.037C234.61 265.887 229.961 265.369 225.329 264.685C225.988 264.218 226.631 263.733 227.265 263.233C227.833 262.791 228.392 262.332 228.926 261.848C229.66 261.172 229.894 260.629 230.028 259.653C230.103 259.061 229.427 258.443 228.859 258.485C227.899 258.56 227.457 258.76 226.705 259.386C226.196 259.812 225.695 260.262 225.178 260.68C224.076 261.565 222.908 262.374 221.714 263.117C219.235 264.669 216.606 265.93 213.852 266.906C211.164 267.866 208.36 268.567 205.53 268.918C203.168 269.219 200.806 269.177 198.444 269.294C198.177 267.374 197.209 265.58 195.907 264.136C193.812 261.824 190.924 260.597 187.869 260.213C186.075 259.988 184.263 260.046 182.469 260.255C180.658 260.464 178.755 260.631 177.094 261.398C175.667 262.057 176.518 264.052 177.837 264.136C179.256 264.219 180.675 263.802 182.077 263.61C183.487 263.426 184.923 263.326 186.342 263.393C188.629 263.493 190.924 264.103 192.694 265.621C194.155 266.881 195.323 268.668 195.223 270.671C195.123 272.632 193.721 274.235 192.193 275.328C188.554 277.949 183.738 279.167 179.365 279.86C174.707 280.586 169.825 280.478 165.193 279.618C160.711 278.783 156.488 277.156 152.414 275.161C152.639 274.861 152.79 274.493 152.79 274.143C152.79 273.166 152.022 272.566 151.121 272.474C144.502 271.823 137.7 270.963 131.014 269.611C114.747 266.339 99.0892 260.171 88.0632 247.209C84.6662 243.219 81.9032 238.637 80.1002 233.704C78.0052 227.961 77.0792 221.885 76.7612 215.801C76.4442 209.708 76.6772 203.59 76.9952 197.505C77.3042 191.679 77.7632 185.862 78.5642 180.086C79.4652 173.626 80.7932 167.232 82.7542 161.014C84.6492 154.996 87.2532 149.379 90.3412 143.904C96.6682 147.927 103.837 150.456 110.924 152.902C112.944 153.603 113.812 150.398 111.8 149.705C98.2952 145.031 82.0032 138.863 78.4142 123.247C76.7112 115.819 78.1722 107.973 80.2922 100.795C82.4122 93.5751 85.3002 86.5811 88.8392 79.9451C90.8252 76.2231 93.0292 72.6171 95.4162 69.1451C97.8202 65.6401 100.541 62.3511 102.953 58.8451C103.613 57.9021 102.21 56.9751 101.426 57.6681C98.5052 60.2561 96.0592 63.3941 93.7642 66.5401C91.4102 69.7451 89.2492 73.0921 87.2622 76.5391C86.2272 78.3421 85.2422 80.1701 84.3152 82.0311C84.2482 81.2881 84.1402 80.5451 84.0402 79.8021C83.8152 78.0491 83.5392 76.3051 83.2892 74.5521C82.8132 71.3051 82.3712 68.0581 81.9542 64.8031C81.7542 63.2341 81.5702 61.6561 81.3782 60.0791C81.4952 59.9041 81.5952 59.7201 81.6872 59.5201C82.0372 59.3201 82.2882 58.9441 82.1542 58.4931C82.1372 58.4181 82.1212 58.3431 82.1042 58.2681C82.2462 57.6921 82.3382 57.1081 82.4302 56.6241C82.7642 54.7631 82.9392 52.8681 83.3402 51.0071C83.9662 48.0941 85.0932 44.8811 87.9642 43.4781C91.0602 41.9671 95.0172 42.9521 98.2392 43.4611C102.329 44.1201 106.41 44.8381 110.483 45.6141C110.491 45.6141 110.491 45.6141 110.5 45.6141C110.625 45.6891 110.742 45.7561 110.859 45.8311C112.236 46.7321 113.588 47.6671 114.899 48.6601C116.201 49.6371 117.378 50.8631 118.88 51.5061C120.048 52.0071 121.551 50.9221 120.758 49.6281C120.115 48.5681 119.197 47.7921 118.237 47.0491C119.623 46.5651 120.966 45.8721 122.31 45.3211C124.205 44.5361 126.133 43.8191 128.069 43.1261C131.9 41.7741 135.773 40.5801 139.712 39.6121C147.65 37.6591 155.771 36.5571 163.934 36.3401C166.179 36.2821 168.424 36.2901 170.67 36.3651C172.965 36.4401 175.444 36.8821 177.698 36.3151C178.566 36.0981 178.867 34.6711 177.965 34.2701C176.045 33.3941 173.867 33.4021 171.797 33.3181C171.288 33.2931 170.779 33.2851 170.27 33.2681C171.856 31.3901 173.35 29.4201 174.944 27.5421C177.014 25.1131 179.176 22.7511 181.421 20.4811C181.98 19.9131 182.548 19.3461 183.115 18.7781C183.524 18.6611 183.925 18.5441 184.334 18.4191C185.469 18.0681 186.596 17.7091 187.74 17.4011C190.194 16.7421 192.681 16.2911 195.21 16.0821C199.075 15.7561 202.939 15.9901 206.712 16.7751C210.101 20.2551 212.121 25.0301 213.064 29.8371C213.131 30.2041 213.323 30.4631 213.573 30.6381C213.773 36.3891 213.882 42.1481 214.091 47.9071C212.096 46.5881 210.085 45.3031 208.04 44.0511C203.8 41.4471 199.46 38.8511 194.761 37.1651C193.718 36.7891 193.3 38.2581 194.06 38.8181C197.507 41.3641 201.246 43.4671 204.877 45.7291C208.458 47.9581 211.971 50.2781 215.427 52.6981C222.371 57.5471 229.04 62.8061 235.384 68.4231C241.068 73.4641 246.685 78.9561 249.915 85.9511C251.534 89.4651 252.302 93.2041 252.402 96.9851C252.511 101.342 251.751 105.757 250.415 109.931C248.963 114.463 246.81 118.737 244.389 122.835C243.195 124.847 241.935 126.816 240.641 128.761C239.297 130.789 237.62 132.717 236.91 135.063C236.501 136.398 238.12 137.016 239.03 136.298C239.297 136.098 239.539 135.872 239.773 135.647C244.23 141.498 248.537 147.449 252.109 153.901C255.865 160.687 258.895 167.848 261.148 175.276C265.881 190.901 267.116 207.502 264.612 223.644C263.251 232.433 260.839 241.088 257.409 249.293C257.384 249.293 257.367 249.276 257.35 249.268C254.838 248.225 252.092 248.049 249.396 248.233C246.341 248.442 243.052 248.784 240.215 250.011C239.326 250.387 239.585 251.872 240.478 252.056Z" fill="#F9F2D7"/>
<path d="M249.91 85.9512C251.529 89.4652 252.297 93.2042 252.397 96.9852C243.333 94.8152 233.793 95.8922 224.595 97.4942C198.028 102.118 172.387 110.94 146.889 119.721C139.152 122.383 131.055 125.28 125.58 131.373C120.105 137.466 118.452 147.816 124.27 153.583C117.476 150.612 109.447 156.471 107.318 163.582C105.19 170.693 107.193 178.305 109.196 185.45C114.939 205.932 120.681 226.415 126.415 246.897C128.51 254.342 130.605 261.946 131.014 269.608C114.747 266.336 99.0892 260.168 88.0632 247.206C84.6662 243.216 81.9033 238.634 80.1003 233.701C78.0053 227.958 77.0792 221.882 76.7612 215.798C76.4442 209.705 76.6772 203.587 76.9952 197.502C77.3042 191.676 77.7632 185.859 78.5642 180.083C79.4652 173.623 80.7933 167.229 82.7543 161.011C84.6493 154.993 87.2532 149.376 90.3412 143.901C96.6682 147.924 103.837 150.453 110.924 152.899C112.944 153.6 113.812 150.395 111.8 149.702C98.2953 145.028 82.0032 138.86 78.4142 123.244C76.7112 115.816 78.1723 107.97 80.2923 100.792C82.4123 93.5722 85.3003 86.5782 88.8393 79.9422C90.8253 76.2202 93.0293 72.6142 95.4163 69.1422C97.8203 65.6372 100.541 62.3482 102.953 58.8422C103.613 57.8992 102.21 56.9722 101.426 57.6652C98.5052 60.2532 96.0593 63.3912 93.7643 66.5372C91.4103 69.7422 89.2493 73.0892 87.2623 76.5362C86.2273 78.3392 85.2422 80.1672 84.3152 82.0282C84.2482 81.2852 84.1403 80.5422 84.0403 79.7992C83.8153 78.0462 83.5392 76.3022 83.2892 74.5492C82.8132 71.3022 82.3712 68.0552 81.9542 64.8002C81.7542 63.2312 81.5703 61.6532 81.3783 60.0762C81.4953 59.9012 81.5953 59.7172 81.6873 59.5172C82.0373 59.3172 82.2883 58.9412 82.1543 58.4902C82.1373 58.4152 82.1212 58.3402 82.1042 58.2652C82.2462 57.6892 82.3383 57.1052 82.4303 56.6212C82.7643 54.7602 82.9393 52.8652 83.3403 51.0042C83.9663 48.0912 85.0933 44.8782 87.9643 43.4752C91.0603 41.9642 95.0173 42.9492 98.2393 43.4582C102.329 44.1172 106.41 44.8352 110.483 45.6112C110.491 45.6112 110.491 45.6112 110.5 45.6112C110.625 45.6862 110.742 45.7532 110.859 45.8282C112.236 46.7292 113.588 47.6642 114.899 48.6572C116.201 49.6342 117.378 50.8602 118.88 51.5032C120.048 52.0042 121.551 50.9192 120.758 49.6252C120.115 48.5652 119.197 47.7892 118.237 47.0462C119.623 46.5622 120.966 45.8692 122.31 45.3182C124.205 44.5332 126.133 43.8162 128.069 43.1232C131.9 41.7712 135.773 40.5772 139.712 39.6092C147.65 37.6562 155.771 36.5542 163.934 36.3372C166.179 36.2792 168.424 36.2872 170.67 36.3622C172.965 36.4372 175.444 36.8792 177.698 36.3122C178.566 36.0952 178.867 34.6682 177.965 34.2672C176.045 33.3912 173.867 33.3992 171.797 33.3152C171.288 33.2902 170.779 33.2822 170.27 33.2652C171.856 31.3872 173.35 29.4172 174.944 27.5392C177.014 25.1102 179.176 22.7482 181.421 20.4782C181.98 19.9102 182.548 19.3432 183.115 18.7752C183.524 18.6582 183.925 18.5412 184.334 18.4162C185.469 18.0652 186.596 17.7062 187.74 17.3982C190.194 16.7392 192.681 16.2882 195.21 16.0792C199.075 15.7532 202.939 15.9872 206.712 16.7722C210.101 20.2522 212.121 25.0272 213.064 29.8342C213.131 30.2012 213.323 30.4602 213.573 30.6352C213.773 36.3862 213.882 42.1452 214.091 47.9042C212.096 46.5852 210.085 45.3002 208.04 44.0482C203.8 41.4442 199.46 38.8482 194.761 37.1622C193.718 36.7862 193.3 38.2552 194.06 38.8152C197.507 41.3612 201.246 43.4642 204.877 45.7262C208.458 47.9552 211.971 50.2752 215.427 52.6952C222.371 57.5442 229.04 62.8032 235.384 68.4202C241.062 73.4652 246.68 78.9572 249.91 85.9512Z" fill="#F6C280"/>
<path d="M163.955 207.019C171.95 214.468 184.021 217.236 194.463 214.016C197.021 213.227 199.551 212.054 201.34 210.063C203.129 208.071 204.035 205.125 203.058 202.632C202.409 200.978 201.05 199.723 199.733 198.53C195.448 194.645 191.163 190.76 186.878 186.875C185.82 185.916 182.366 181.643 180.87 182.011C179.475 182.354 179.5 185.993 179.182 187.197C178.088 191.331 176.145 195.242 173.549 198.637C172.687 199.762 165.413 208.033 163.955 207.019Z" fill="#AA9380"/>
<path d="M247.776 184.826C247.42 190.675 242.432 195.022 237.835 198.655C235.217 200.725 232.512 202.84 229.31 203.781C226.108 204.722 222.247 204.219 220.079 201.681C217.79 199.003 218.021 195.062 218.379 191.557C218.864 186.804 218.978 181.831 219.851 177.137C220.66 172.789 222.948 173.765 225.93 176.015C229.164 178.455 232.373 180.628 236.155 182.16C237.026 182.513 247.726 185.551 247.776 184.826Z" fill="#AA9380"/>
<path d="M137.494 271.286C138.885 272.013 140.607 271.511 141.968 270.731C143.33 269.951 144.563 268.897 146.066 268.445C148.763 267.634 151.632 268.93 154.447 268.831C157.563 268.721 160.325 266.936 163.151 265.619C169.225 262.79 176.062 262.024 182.762 261.996C185.279 261.986 187.844 262.082 190.216 262.924C192.588 263.765 194.771 265.461 195.639 267.824C196.719 270.764 195.523 274.186 193.334 276.425C191.145 278.664 188.128 279.901 185.107 280.726C177.451 282.818 169.179 282.595 161.647 280.093C154.73 277.796 148.365 273.62 141.131 272.729" fill="#AA9380"/>
<path d="M257.524 250.259C251.736 247.564 244.741 248.729 239.115 251.748C233.489 254.767 228.953 259.43 224.513 264.019C233.275 268.591 243.733 268.711 253.481 267.078C256.736 266.533 260.42 265.445 261.729 262.415C262.436 260.778 262.257 258.846 261.509 257.229C260.761 255.612 259.489 254.282 258.067 253.207C254.07 250.185 248.696 249.065 243.825 250.239" fill="#AA9380"/>
<path d="M71.0432 184.799C69.6332 185.517 68.9402 183.088 68.6142 182.178C68.1132 180.767 67.5122 179.407 66.7942 178.097C67.9122 181.836 67.8702 185.951 65.7342 189.139C64.4992 187.403 63.2632 185.675 62.0282 183.939C63.0052 188.121 63.3892 192.444 63.1722 196.734C60.9272 195.682 59.1322 193.696 58.3232 191.351C58.4812 196.117 58.6482 200.891 58.8072 205.665C58.8322 206.508 58.7402 207.551 57.9562 207.877C56.9462 208.286 56.0612 207.034 55.7772 205.974C55.4932 204.914 55.0592 203.579 53.9742 203.504C54.3502 206.909 53.7242 210.423 52.2052 213.495C51.5872 211.6 50.9112 209.405 50.0182 207.318C48.2992 203.287 45.7612 199.673 41.2292 199.522C32.7742 199.246 23.9272 200.59 15.5552 201.642C12.3672 202.043 8.86124 202.41 6.03224 201.066C5.99924 201.083 5.96524 201.099 5.92324 201.108C4.89624 201.4 3.79524 201.325 2.82624 200.874C1.95824 200.465 1.28224 199.614 1.09024 198.671C0.898241 197.719 1.15724 196.668 1.90824 196.084C1.39124 194.406 1.29124 192.562 1.53324 190.834C1.55024 190.692 1.57524 190.55 1.60024 190.408C2.20124 186.769 4.02024 183.505 6.19924 180.476C6.20724 180.451 6.19924 180.426 6.21624 180.393C7.01724 178.498 7.81024 176.645 9.03724 174.968C10.2392 173.324 11.6002 171.813 13.1352 170.469C16.2572 167.731 19.9372 165.72 23.9192 164.535C24.1362 164.468 24.3862 164.468 24.6282 164.518C27.5492 163.541 30.6462 163.032 33.7092 162.582C38.7502 161.848 43.9172 161.222 48.9162 162.232C53.2652 163.1 57.3212 165.27 60.5512 168.308C60.6262 168.3 60.6932 168.283 60.7762 168.3C62.3292 168.492 63.6892 169.702 64.8162 170.712C65.9262 171.697 66.8862 172.799 67.7792 173.976C69.3562 176.079 70.7092 178.516 71.4012 181.062C71.6692 182.053 72.2282 184.19 71.0432 184.799Z" fill="#F9F2D7"/>
<path d="M103.385 49.0102C99.5032 46.2982 95.1912 44.0262 90.8552 42.1382C88.9962 41.3292 86.9172 40.4932 84.8682 41.0992C82.7602 41.7232 81.7392 43.7562 81.7422 45.8342C81.7442 47.1762 82.0022 48.5532 82.3422 49.9102C82.4162 50.5452 82.5042 51.1772 82.5962 51.8022C82.9492 54.2052 83.4492 56.5872 84.0932 58.9292C85.3632 63.5492 87.2152 68.0082 89.5362 72.1982C89.9402 72.9272 91.2072 73.2142 91.7762 72.4872C94.9862 68.3822 98.2412 64.3112 101.46 60.2132C102.222 59.2422 102.985 58.2712 103.748 57.3002C104.488 56.3572 105.372 55.4282 105.79 54.2852C106.615 52.0242 105.144 50.2402 103.385 49.0102Z" fill="#F9F2D7"/>
<path d="M207.072 20.7171C207.035 18.9301 206.998 17.0811 206.295 15.4101C204.747 11.7291 200.501 11.2251 197.241 12.8851C195.437 13.8041 193.894 15.2551 192.404 16.6011C190.775 18.0741 189.178 19.5831 187.611 21.1211C185.905 22.7961 184.236 24.5091 182.606 26.2581C181.043 27.9341 179.038 29.7802 178.223 31.9512C177.996 32.5562 178.743 33.0002 179.242 32.7512L179.245 32.7532C181.284 33.6972 183.695 33.8372 185.874 34.3952C188.147 34.9772 190.385 35.6941 192.573 36.5411C196.898 38.2151 200.928 40.4261 204.794 42.9741C205.766 43.6141 207.054 42.7671 207.058 41.6751C207.076 36.9721 207.182 32.2681 207.159 27.5641C207.148 25.2821 207.119 22.9991 207.072 20.7171Z" fill="#F9F2D7"/>
<path d="M163.475 115.024C163.603 112.91 162.387 110.889 160.444 109.889C157.998 108.63 155.126 109.005 152.568 109.703C151.424 110.015 150.314 110.434 149.257 110.96C148.75 111.152 148.251 111.359 147.768 111.594C146.361 112.28 145.09 113.454 144.474 114.875C143.698 115.98 143.143 117.235 142.976 118.567C142.634 121.287 144.485 123.283 147.092 123.685C149.751 124.096 152.759 124.018 155.371 123.375C157.771 122.784 160.038 121.449 161.417 119.359C161.434 119.333 161.446 119.305 161.462 119.279C161.533 119.224 161.609 119.177 161.678 119.12C162.942 118.069 163.567 116.544 163.475 115.024Z" fill="#F49769"/>
<path d="M235.504 96.5052C235.632 94.3912 234.416 92.3702 232.473 91.3702C230.027 90.1112 227.155 90.4862 224.597 91.1842C223.453 91.4962 222.343 91.9152 221.286 92.4412C220.779 92.6332 220.28 92.8402 219.797 93.0752C218.39 93.7612 217.119 94.9352 216.504 96.3562C215.728 97.4612 215.173 98.7162 215.006 100.048C214.664 102.768 216.515 104.764 219.122 105.167C221.781 105.578 224.789 105.5 227.401 104.857C229.801 104.266 232.068 102.931 233.447 100.841C233.464 100.815 233.476 100.787 233.492 100.761C233.563 100.706 233.639 100.659 233.708 100.602C234.971 99.5502 235.596 98.0252 235.504 96.5052Z" fill="#F49769"/>
<path d="M50.0182 207.318C48.2992 203.287 45.7612 199.673 41.2292 199.522C32.7742 199.246 23.9272 200.59 15.5552 201.642C12.3672 202.043 8.86124 202.41 6.03224 201.066C5.99924 201.083 5.96524 201.099 5.92324 201.108C4.89624 201.4 3.79524 201.325 2.82624 200.874C1.95824 200.465 1.28224 199.614 1.09024 198.671C0.898241 197.719 1.15724 196.668 1.90824 196.084C1.39124 194.406 1.29124 192.562 1.53324 190.834C1.55024 190.692 1.57524 190.55 1.60024 190.408C4.63824 193.947 9.76324 195.591 14.4872 195.149C20.0632 194.615 25.1372 191.668 29.5192 188.171C30.0532 187.745 30.7632 187.286 31.3642 187.62C31.8232 187.87 31.9402 188.463 32.0822 188.972C32.7912 191.601 35.3202 193.629 38.0412 193.746C42.4982 193.946 46.2872 189.623 50.7282 190.048C49.6932 195.733 49.4512 201.559 50.0182 207.318Z" fill="#EADEBE"/>
<path d="M210.669 141.056C209.492 141.454 208.667 142.166 207.708 142.925C206.843 143.609 205.906 144.21 204.944 144.747C202.841 145.922 200.575 146.752 198.238 147.323C192.752 148.663 187.032 148.507 181.426 148.577C180.56 148.588 180.289 150.018 181.213 150.152C187.153 151.016 193.226 151.256 199.109 149.85C201.612 149.252 204.065 148.343 206.325 147.108C208.37 145.99 211.047 144.486 211.713 142.099C211.878 141.503 211.29 140.846 210.669 141.056Z" fill="#EADEBE"/>
<path d="M201.267 149.877C200.914 149.891 200.573 149.834 200.224 149.9C199.896 149.963 199.567 150.055 199.246 150.148C198.646 150.321 198.043 150.486 197.448 150.677C196.853 150.868 196.251 151.044 195.669 151.274C195.045 151.52 194.451 151.823 193.836 152.09C193.64 152.175 193.585 152.451 193.66 152.628C193.75 152.842 193.951 152.908 194.168 152.877C194.794 152.789 195.421 152.744 196.044 152.635C196.683 152.523 197.312 152.352 197.942 152.199C198.549 152.052 199.149 151.875 199.751 151.71C200.05 151.628 200.355 151.54 200.646 151.431C200.98 151.305 201.238 151.083 201.547 150.91C202.019 150.647 201.819 149.854 201.267 149.877Z" fill="#EADEBE"/>
<path d="M106.152 146.299C102.502 143.327 99.1742 140.169 96.6272 136.173C94.1312 132.256 92.3792 127.943 91.2172 123.455C88.4662 112.836 89.5192 101.745 91.9222 91.1652C93.4202 84.5702 95.4172 78.1042 97.4212 71.6492C97.8682 70.2102 95.8282 68.9172 94.8052 70.1262C86.2792 80.2102 80.3522 92.4492 77.8652 105.43C76.6372 111.836 75.8722 118.755 77.6982 125.123C79.3712 130.955 83.4102 135.179 88.2782 138.569C93.3932 142.13 99.0662 144.87 103.494 149.346C104.629 150.494 106.232 149.306 106.086 148.04C106.6 147.601 106.806 146.832 106.152 146.299Z" fill="#E0AA70"/>
<path d="M187.428 91.6931L187.375 91.4841C187.374 91.4311 187.372 91.3791 187.355 91.3151C187.331 91.2231 187.291 91.1421 187.241 91.0631C187.175 90.9611 187.11 90.8711 187.034 90.7741C186.949 90.6661 186.864 90.5591 186.779 90.4511C186.74 90.4011 186.701 90.3511 186.661 90.3021C186.614 90.2441 186.558 90.1991 186.502 90.1501C186.425 90.0841 186.346 90.0051 186.26 89.9521C186.202 89.9171 186.14 89.9031 186.079 89.8851C186.061 89.8711 186.043 89.8571 186.025 89.8431C185.97 89.8001 185.866 89.7821 185.798 89.7821C185.698 89.7821 185.604 89.8181 185.525 89.8791C185.379 89.9921 185.322 90.1731 185.364 90.3521C185.359 90.3931 185.348 90.4351 185.349 90.4751C185.352 90.5851 185.384 90.6801 185.414 90.7831C185.469 90.9691 185.549 91.1401 185.637 91.3121C185.701 91.4361 185.762 91.5621 185.829 91.6841C185.862 91.7451 185.902 91.8031 185.94 91.8611C186.023 91.9861 186.108 92.0801 186.231 92.1621C186.251 92.1761 186.276 92.1801 186.298 92.1901C186.336 92.2211 186.375 92.2521 186.414 92.2831C186.522 92.3701 186.621 92.4311 186.762 92.4501C186.891 92.4671 187.036 92.4511 187.149 92.3781C187.379 92.2291 187.497 91.9621 187.428 91.6931Z" fill="#E0AA70"/>
<path d="M189.038 89.6872C189.026 89.6682 189.013 89.6502 189.001 89.6312C188.951 89.5572 188.901 89.4822 188.851 89.4082C188.751 89.2592 188.652 89.1102 188.552 88.9622C188.457 88.8202 188.33 88.7092 188.162 88.6622C188.075 88.6352 187.989 88.6312 187.902 88.6502C187.815 88.6542 187.734 88.6802 187.66 88.7272C187.521 88.8172 187.398 88.9502 187.36 89.1172C187.322 89.2822 187.328 89.4742 187.426 89.6202C187.527 89.7712 187.629 89.9222 187.73 90.0732C187.78 90.1472 187.83 90.2222 187.88 90.2962C187.892 90.3152 187.905 90.3332 187.917 90.3522C187.934 90.3772 187.953 90.4022 187.973 90.4252C188.002 90.4742 188.041 90.5132 188.09 90.5422C188.131 90.5822 188.179 90.6102 188.234 90.6262C188.26 90.6442 188.288 90.6552 188.318 90.6602C188.381 90.6772 188.452 90.6802 188.518 90.6862C188.532 90.6872 188.546 90.6882 188.56 90.6902C188.608 90.6832 188.657 90.6772 188.705 90.6702C188.776 90.6532 188.839 90.6202 188.891 90.5722C188.932 90.5482 188.965 90.5152 188.989 90.4742C189.037 90.4212 189.07 90.3592 189.087 90.2882C189.096 90.2602 189.105 90.2322 189.113 90.2042C189.159 90.0292 189.136 89.8392 189.038 89.6872Z" fill="#E0AA70"/>
<path d="M192.208 89.2582C192.176 89.1072 192.14 88.9572 192.106 88.8062C192.073 88.6602 192.032 88.5422 191.968 88.4002C191.938 88.3342 191.908 88.2672 191.878 88.2012C191.809 88.0492 191.74 87.8982 191.671 87.7462C191.59 87.5682 191.357 87.4152 191.176 87.3652C190.978 87.3102 190.714 87.3352 190.538 87.4482C190.361 87.5622 190.205 87.7322 190.157 87.9432C190.147 88.0162 190.137 88.0902 190.127 88.1632C190.127 88.3122 190.165 88.4522 190.24 88.5812C190.309 88.7332 190.378 88.8842 190.447 89.0362C190.477 89.1022 190.505 89.1702 190.537 89.2352C190.574 89.3092 190.629 89.3742 190.678 89.4402C190.77 89.5662 190.861 89.6932 190.954 89.8182C190.991 89.8762 191.034 89.9302 191.082 89.9792C191.167 90.0632 191.267 90.1212 191.382 90.1542C191.401 90.1612 191.42 90.1682 191.439 90.1742C191.588 90.2252 191.771 90.2232 191.91 90.1432C192.064 90.0532 192.131 89.9032 192.192 89.7472C192.256 89.5842 192.244 89.4292 192.208 89.2582Z" fill="#E0AA70"/>
<path d="M202.887 85.3882C202.867 85.3312 202.848 85.2742 202.828 85.2172C202.722 84.9312 202.489 84.7172 202.172 84.7102C202.056 84.7082 201.908 84.7432 201.812 84.8042C201.701 84.8752 201.631 84.9592 201.554 85.0672C201.515 85.1222 201.475 85.1762 201.437 85.2312C201.331 85.3872 201.292 85.5952 201.24 85.7752C201.202 85.9072 201.175 86.0402 201.149 86.1752C201.136 86.2392 201.123 86.3032 201.112 86.3672C201.093 86.4712 201.07 86.5822 201.075 86.6872C201.076 86.7142 201.083 86.7412 201.086 86.7682C201.1 86.8962 201.101 87.0262 201.107 87.1552C201.12 87.4222 201.247 87.7292 201.506 87.8502C201.619 87.9032 201.689 87.9322 201.805 87.9472C201.918 87.9622 202.014 87.9492 202.127 87.9312C202.407 87.8852 202.605 87.6162 202.689 87.3692C202.729 87.2522 202.766 87.1312 202.813 87.0162C202.825 86.9862 202.843 86.9552 202.851 86.9272C202.881 86.8302 202.89 86.7302 202.899 86.6282C202.906 86.5572 202.912 86.4852 202.918 86.4132C202.931 86.2702 202.941 86.1282 202.942 85.9842C202.943 85.7852 202.955 85.5792 202.887 85.3882Z" fill="#E0AA70"/>
<path d="M204.925 84.6132C204.925 84.4192 204.841 84.2152 204.703 84.0782C204.572 83.9472 204.357 83.8482 204.168 83.8562C203.758 83.8742 203.412 84.1882 203.412 84.6122V84.9962C203.412 85.1592 203.447 85.3182 203.479 85.4772C203.494 85.6172 203.51 85.7582 203.525 85.8982C203.53 85.9432 203.534 85.9872 203.539 86.0322C203.55 86.1242 203.559 86.2052 203.595 86.2902C203.629 86.3692 203.636 86.3842 203.688 86.4522C203.764 86.5502 203.844 86.6232 203.948 86.6932C204.068 86.7752 204.268 86.7752 204.389 86.6932C204.466 86.6402 204.539 86.5842 204.601 86.5142C204.64 86.4692 204.682 86.4182 204.71 86.3652C204.765 86.2632 204.782 86.1622 204.796 86.0482C204.802 85.9982 204.807 85.9482 204.813 85.8982C204.828 85.7572 204.844 85.6172 204.859 85.4772C204.89 85.3182 204.926 85.1582 204.926 84.9962V84.6132H204.925Z" fill="#E0AA70"/>
<path d="M172.642 94.7382C172.087 94.1912 171.266 93.9422 170.499 93.9612C170.278 93.9672 170.093 94.1252 170.064 94.3462C170.034 94.5712 170.17 94.7612 170.382 94.8322C170.413 94.8422 170.444 94.8532 170.475 94.8652C170.486 94.8692 170.525 94.8862 170.534 94.8892C170.542 94.8932 170.55 94.8962 170.552 94.8972C170.577 94.9092 170.602 94.9212 170.626 94.9332C170.734 94.9882 170.833 95.0542 170.929 95.1282C170.99 95.1752 171.05 95.2222 171.111 95.2692C171.068 95.2362 171.026 95.2032 170.983 95.1702C171.159 95.3092 171.317 95.4672 171.456 95.6432C171.418 95.5942 171.379 95.5442 171.341 95.4952C171.42 95.5972 171.499 95.6982 171.582 95.7962C171.633 95.8352 171.683 95.8742 171.734 95.9132C171.82 95.9682 171.913 95.9972 172.013 96.0022C172.121 96.0162 172.228 96.0022 172.332 95.9712C172.424 95.9642 172.512 95.9432 172.595 95.8782C172.677 95.8152 172.719 95.7402 172.748 95.6582C172.751 95.6532 172.756 95.6482 172.759 95.6432C172.784 95.5832 172.809 95.5242 172.835 95.4642C172.866 95.3642 172.871 95.2652 172.848 95.1652C172.827 95.0072 172.761 94.8552 172.642 94.7382Z" fill="#E0AA70"/>
<path d="M174.814 93.6501C174.771 93.5501 174.733 93.4511 174.673 93.3601C174.614 93.2711 174.554 93.1811 174.494 93.0911C174.375 92.9121 174.256 92.7331 174.137 92.5541C174.048 92.4201 173.934 92.3311 173.782 92.2811C173.603 92.2231 173.408 92.2761 173.265 92.3871C173.2 92.4291 173.149 92.4841 173.112 92.5531C173.069 92.6211 173.045 92.6951 173.042 92.7741C173.024 92.8531 173.028 92.9321 173.053 93.0111C173.081 93.1121 173.132 93.1991 173.205 93.2731C173.368 93.4221 173.532 93.5711 173.695 93.7211C173.775 93.7951 173.856 93.8681 173.936 93.9421C174.042 94.0391 174.158 94.1121 174.28 94.1871C174.422 94.2751 174.639 94.2511 174.754 94.1261C174.8 94.0761 174.834 94.0181 174.855 93.9531C174.888 93.8451 174.855 93.7471 174.814 93.6501Z" fill="#E0AA70"/>
<path d="M183.628 39.7171C183.624 39.7161 183.62 39.7151 183.617 39.7141C183.639 39.6381 183.659 39.5611 183.668 39.4851C183.772 38.6151 183.271 37.9671 182.478 37.6621C178.518 36.1381 174.275 35.5801 170.058 35.3661C165.944 35.1571 161.813 35.2211 157.705 35.5161C149.41 36.1121 141.176 37.6561 133.242 40.1481C128.754 41.5571 124.368 43.2791 120.101 45.2581C119.952 45.3271 119.832 45.4131 119.726 45.5061C119.411 45.2801 118.987 45.2041 118.603 45.3341C118.186 45.4751 117.863 45.7851 117.655 46.1691C117.236 46.9441 117.095 47.9291 117.41 48.7671C117.484 48.9651 117.574 49.1581 117.726 49.3101C117.918 49.5021 118.166 49.6121 118.432 49.6481C118.59 49.6691 118.737 49.6521 118.883 49.6151C118.982 49.7921 119.14 49.9591 119.293 50.0401C119.513 50.1571 119.741 50.2031 119.989 50.1701C120.218 50.1391 120.455 50.0451 120.616 49.8701C120.801 49.6691 120.963 49.3821 120.936 49.0981C120.917 48.8981 120.886 48.7071 120.829 48.5231C120.811 48.4541 120.792 48.3861 120.77 48.3181C120.963 48.3461 121.166 48.3451 121.379 48.2901C137.058 44.2491 153.03 40.1451 169.361 40.9631C173.88 41.1891 178.355 41.8191 182.748 42.9121C184.816 43.4261 185.699 40.2321 183.628 39.7171Z" fill="#E0AA70"/>
<path d="M99.1642 255.47C98.7272 255.012 98.2892 254.552 97.8522 254.093C96.7922 251.443 95.6012 248.84 94.6292 246.149C93.4032 242.754 92.3692 239.291 91.5052 235.786C89.7542 228.688 88.7242 221.449 88.2162 214.16C87.6852 206.547 87.6692 198.909 87.9032 191.284C88.1202 184.222 88.3792 177.095 89.3272 170.086C90.3172 162.772 92.2492 155.515 96.3042 149.272C96.8222 148.474 96.3422 147.156 95.3692 146.974C95.3322 146.967 95.2972 146.956 95.2602 146.949C95.1852 146.803 95.0892 146.659 94.9502 146.523C93.8262 145.428 92.5032 144.598 91.0382 144.092C90.9822 143.248 89.8482 142.649 89.1042 143.354C86.4572 145.866 84.7242 149.368 83.3292 152.693C81.8832 156.139 80.8622 159.74 80.0842 163.391C78.3692 171.435 77.5412 179.71 76.8232 187.893C76.0622 196.572 75.4852 205.347 75.6482 214.064C75.8012 222.283 77.1952 230.286 81.1342 237.579C85.2072 245.119 91.1502 251.455 97.0072 257.627C98.3602 259.055 100.521 256.892 99.1642 255.47Z" fill="#E0AA70"/>
<path d="M77.4612 233.854C77.5232 233.427 77.5852 233 77.6472 232.573C77.7372 231.951 77.4932 231.479 77.1222 231.208C76.8152 229.324 76.4622 227.449 76.1422 225.568C75.4282 221.368 74.8242 217.148 74.3782 212.911C74.1172 210.433 73.9082 207.954 73.7422 205.47C73.8892 200.566 74.2233 195.662 74.5693 190.797C74.6383 189.833 73.9572 189.348 73.2162 189.32C73.2022 188.773 73.1793 188.227 73.1383 187.684C72.9843 185.62 70.0933 185.622 69.9303 187.684C69.7613 189.818 69.9093 192.017 69.9703 194.155C70.0313 196.31 70.1373 198.471 70.3043 200.621C70.3533 201.251 70.4082 201.88 70.4612 202.509C70.0602 207.115 69.6592 211.722 69.2582 216.328C68.9652 219.695 68.6882 223.54 66.1602 226.074C64.2342 228.005 60.7522 228.481 59.0382 225.935C58.3952 224.981 56.6883 225.544 57.0833 226.759C57.6613 228.536 59.0442 229.731 60.7052 230.275C60.7122 230.636 60.8653 231.003 61.2203 231.317C62.9123 232.81 64.7662 234.252 66.9532 234.571C67.4472 235.033 68.0192 235.413 68.6542 235.677C68.9662 235.807 69.2813 235.898 69.5963 235.963C71.3593 236.925 73.1222 237.888 74.8842 238.85C75.6342 239.26 76.5692 238.98 77.0462 238.367C77.2772 238.871 78.0242 238.626 77.9322 238.054C77.7072 236.663 77.6002 235.258 77.4612 233.854Z" fill="#E0AA70"/>
<path d="M229.345 255.368C227.812 255.408 226.72 257.053 225.663 258.01C224.651 258.927 223.589 259.782 222.47 260.565C220.078 262.239 217.479 263.651 214.75 264.691C212.061 265.716 209.232 266.465 206.38 266.864C203.471 267.271 200.509 267.199 197.581 267.323C196.355 267.375 196.084 269.111 197.29 269.475C200.329 270.39 203.462 270.366 206.592 270.008C209.742 269.648 212.812 268.936 215.775 267.802C218.724 266.673 221.549 265.229 224.142 263.423C225.404 262.544 226.622 261.594 227.773 260.574C228.832 259.636 230.756 258.225 230.65 256.671C230.602 255.983 230.09 255.348 229.345 255.368Z" fill="#EADEBE"/>
<path d="M194.803 216.313C194.739 216.193 194.672 216.075 194.602 215.958C194.281 215.405 193.498 215.259 192.955 215.53C192.063 215.523 191.119 215.775 190.261 215.85C188.923 215.967 187.579 216.009 186.236 215.977C183.584 215.915 180.957 215.554 178.382 214.917C173.221 213.639 168.38 211.354 164.148 208.13C161.742 206.298 159.678 204.065 157.532 201.953C156.74 201.173 155.515 201.937 155.628 202.884C154.853 202.46 154.075 203.358 154.46 204.102C155.919 206.923 159.023 209.15 161.538 210.966C164.234 212.912 167.175 214.535 170.235 215.831C173.321 217.138 176.546 218.11 179.843 218.713C181.506 219.017 183.19 219.242 184.876 219.362C186.428 219.472 188.427 219.794 189.906 219.238C190.011 219.198 190.096 219.138 190.186 219.081C191.654 219.015 193.672 218.979 194.593 217.942C195.001 217.481 195.104 216.86 194.803 216.313Z" fill="#EADEBE"/>
<path d="M252.671 177.953C252.665 177.893 252.664 177.832 252.658 177.771C252.454 175.978 250.076 175.809 249.685 177.44C249.591 177.647 249.553 177.889 249.596 178.162C248.744 188.988 241.934 198.976 232.452 204.188C231.292 204.826 232.311 206.425 233.466 205.922C235.15 205.189 236.73 204.304 238.225 203.309C238.547 203.543 238.965 203.663 239.434 203.571C244.696 202.535 249.465 199.091 252.043 194.375C253.433 191.831 254.179 188.962 254.264 186.067C254.341 183.419 254.001 180.334 252.671 177.953Z" fill="#EADEBE"/>
<path d="M195.39 268.924C195.287 267.421 194.702 265.982 193.501 264.927C193.081 264.558 192.546 264.404 192.039 264.512C191.616 264.369 191.163 264.281 190.676 264.272C188.611 264.235 188.611 267.441 190.676 267.48C191.015 267.486 191.285 267.585 191.501 267.744C192.349 269.842 190.971 272.189 189.118 273.432C189.065 273.468 189.007 273.497 188.953 273.532C187.521 274.223 185.9 274.656 184.529 275.052C178.175 276.887 171.519 277.408 164.938 276.883C161.767 276.63 158.635 276.094 155.542 275.364C154.087 274.854 152.654 274.288 151.256 273.689C150.041 273.168 149.098 274.696 150.209 275.479C150.763 275.87 151.338 276.228 151.922 276.57C151.875 277.114 152.103 277.661 152.732 277.971C159.384 281.246 166.852 281.722 174.118 280.831C175.774 280.628 177.42 280.361 179.058 280.056C179.191 280.032 179.324 280.011 179.457 279.986C181.362 279.622 183.256 279.201 185.14 278.733C188.35 277.934 191.828 276.827 193.882 274.049C194.176 273.652 194.427 273.217 194.641 272.763C194.888 272.337 195.093 271.881 195.235 271.384C195.461 270.587 195.505 269.743 195.39 268.924Z" fill="#917B6B"/>
<path d="M260.798 255.841C260.131 255.132 258.835 255.294 258.371 256.154C257.229 258.272 255.102 259.475 252.904 260.276C250.144 261.283 247.225 261.927 244.331 262.399C241.27 262.898 238.173 263.142 235.072 263.126C233.539 263.118 232.013 263.003 230.488 262.886C229.692 262.682 228.901 262.446 228.116 262.169C227.383 261.91 226.807 262.181 226.472 262.659C226.249 262.653 226.027 262.636 225.804 262.635C224.524 262.626 224.394 264.373 225.514 264.774C226.079 264.977 226.66 265.139 227.246 265.284C227.249 265.285 227.252 265.287 227.256 265.289C234.391 267.828 242.033 267.306 249.393 266.208C251.246 265.932 253.099 265.633 254.94 265.288C256.482 264.999 258.066 264.591 259.382 263.701C261.931 261.977 263.084 258.271 260.798 255.841Z" fill="#917B6B"/>
<path d="M242.99 187.23C242.175 191.445 240.001 195.223 236.704 197.988C234.985 199.429 232.935 200.577 230.828 201.344C228.658 202.133 226.389 202.355 224.18 202.974C223.846 203.068 223.883 203.507 224.18 203.615C226.531 204.475 229.203 204.055 231.569 203.395C234.01 202.714 236.266 201.552 238.261 199.99C242.053 197.02 244.73 192.694 245.794 188.004C246.21 186.17 243.343 185.403 242.99 187.23Z" fill="#917B6B"/>
<path d="M200.13 205.841C198.728 205.894 197.364 207.229 196.147 207.886C194.862 208.58 193.529 209.168 192.149 209.645C189.414 210.59 186.557 211.137 183.665 211.254C180.771 211.371 177.868 211.12 175.055 210.424C173.619 210.069 172.203 209.632 170.829 209.083C169.531 208.564 168.222 207.894 166.824 207.71C166.296 207.641 165.928 208.368 166.21 208.779C167.063 210.022 168.495 210.817 169.836 211.437C171.282 212.106 172.78 212.677 174.318 213.095C177.401 213.933 180.632 214.311 183.824 214.181C187.02 214.051 190.221 213.472 193.24 212.41C194.756 211.876 196.243 211.233 197.66 210.474C198.982 209.767 200.841 208.963 201.393 207.499C201.692 206.712 200.925 205.811 200.13 205.841Z" fill="#917B6B"/>
<path d="M205.801 97.5911C205.782 97.5811 205.763 97.5771 205.744 97.5681C205.96 97.2371 206.148 96.8961 206.275 96.5391C206.669 95.4351 205.145 94.6791 204.379 95.4351C203.791 96.0151 203.394 96.7581 202.808 97.3521C202.219 97.9491 201.567 98.4671 200.859 98.9151C199.466 99.7971 197.935 100.4 196.335 100.784C194.378 101.254 192.383 101.366 190.376 101.367C189.308 101.368 188.241 101.322 187.174 101.254C186.098 101.186 185.052 101.244 183.982 101.223C183.621 101.216 183.421 101.53 183.421 101.832C183.23 102.029 183.215 102.404 183.421 102.592C183.924 103.05 184.395 103.408 185.028 103.676C185.71 103.964 186.388 104.233 187.091 104.464C187.251 104.517 187.412 104.564 187.572 104.616C187.742 104.7 187.927 104.763 188.122 104.803C188.173 104.813 188.224 104.827 188.275 104.838C188.515 104.913 188.754 104.991 188.994 105.065C189.312 105.163 189.63 105.26 189.948 105.358C190.105 105.406 190.265 105.468 190.425 105.504C190.656 105.556 190.848 105.542 191.04 105.493C191.55 105.626 192.06 105.757 192.567 105.901C192.657 106.039 192.804 106.147 193.022 106.177C193.762 106.278 194.322 106.537 194.931 106.923C195.246 107.123 195.537 107.349 195.839 107.567C195.997 107.681 196.154 107.796 196.304 107.92C196.309 107.925 196.426 108.026 196.443 108.038C196.5 108.091 196.557 108.144 196.613 108.199C196.879 108.461 197.124 108.744 197.347 109.043C197.405 109.121 197.462 109.201 197.517 109.281C197.526 109.294 197.525 109.291 197.528 109.295C197.534 109.305 197.537 109.311 197.552 109.338C197.595 109.413 197.635 109.489 197.679 109.563C197.704 109.61 197.727 109.657 197.756 109.701C197.783 109.749 197.812 109.796 197.837 109.845C197.925 110.018 198.006 110.194 198.079 110.374C198.116 110.464 198.149 110.555 198.183 110.646C198.099 110.424 198.204 110.719 198.212 110.744C198.321 111.116 198.397 111.5 198.456 111.883C198.457 111.891 198.461 111.898 198.462 111.905C198.438 112.299 198.394 112.697 198.312 113.102C198.149 113.905 197.763 114.966 197.36 115.674C197.101 116.128 196.814 116.569 196.494 116.983C196.06 117.544 195.529 118.065 195.729 118.909C195.869 119.499 196.296 119.799 196.86 119.908C198.258 120.178 199.348 118.107 199.877 117.072C200.308 116.227 200.623 115.349 200.844 114.439C201.005 114.863 201.176 115.283 201.373 115.69C201.567 116.092 201.772 116.489 201.988 116.88C202.373 117.578 202.75 118.188 203.623 118.268C204.236 118.324 204.792 117.917 205.01 117.363C205.413 116.339 204.483 115.342 204.018 114.48C203.606 113.716 203.194 112.955 202.836 112.163C202.204 110.763 201.543 109.349 201.082 107.881C201.534 107.254 201.979 106.641 202.348 105.953C202.751 105.204 203.153 104.455 203.555 103.706C203.958 102.957 204.374 102.22 204.799 101.484C205.02 101.101 205.259 100.74 205.494 100.366C205.731 99.9901 206.01 99.6681 206.237 99.2811C206.59 98.6821 206.455 97.9251 205.801 97.5911Z" fill="#663829"/>
<path d="M161.77 111.349C165.114 110.008 166.434 105.823 164.878 102.669C163.977 100.844 162.054 99.4222 159.947 99.7412C159.939 99.7422 159.931 99.7462 159.922 99.7472C159.325 99.6602 158.705 99.6612 158.078 99.7812C156.423 100.098 154.826 101.148 153.954 102.602C152.99 104.211 152.881 106.067 153.494 107.82C154.058 109.436 155.29 110.731 156.854 111.413C158.409 112.092 160.223 111.97 161.77 111.349Z" fill="#663829"/>
<path d="M220.262 97.4592C223.606 96.1182 224.926 91.9332 223.37 88.7792C222.469 86.9542 220.546 85.5322 218.439 85.8512C218.431 85.8522 218.423 85.8562 218.415 85.8572C217.817 85.7702 217.199 85.7712 216.57 85.8912C214.915 86.2082 213.318 87.2582 212.446 88.7122C211.482 90.3212 211.373 92.1772 211.985 93.9302C212.549 95.5462 213.781 96.8412 215.345 97.5232C216.901 98.2022 218.715 98.0792 220.262 97.4592Z" fill="#663829"/>
<path d="M257.52 81.6241L257.523 81.6201C257.529 81.6111 257.526 81.6161 257.53 81.6091L257.527 81.6131C257.524 81.6181 257.523 81.6191 257.52 81.6241Z" fill="#663829"/>
<path d="M242.063 198.991C245.287 195.641 247.742 191.615 249.343 187.256C250.218 184.873 250.781 182.404 251.088 179.886C251.393 177.387 251.755 174.442 250.327 172.247C249.831 171.485 248.764 171.661 248.468 172.49C247.789 174.391 248.07 176.352 247.927 178.342C247.786 180.313 247.415 182.259 246.872 184.159C245.813 187.863 244.042 191.395 241.661 194.428C239.14 197.638 235.921 200.403 232.218 202.156C228.761 203.793 224.077 204.287 221.127 201.359C218.434 198.687 219.044 195.053 220.148 191.673C220.565 191.809 221.078 191.626 221.199 191.139C221.487 189.979 221.556 188.877 221.553 187.746C221.579 187.672 221.608 187.594 221.633 187.521C221.755 187.165 221.694 186.862 221.533 186.629C221.526 186.397 221.518 186.162 221.51 185.924C221.453 184.25 221.463 182.578 221.573 180.906C221.791 177.587 222.389 174.304 223.314 171.11C224.243 167.901 225.469 164.797 227.047 161.851C228.65 158.859 230.455 155.79 232.507 153.089C233.094 152.317 231.854 151.438 231.196 152.078C229.912 153.326 228.655 154.536 227.547 155.95C226.445 157.357 225.471 158.861 224.596 160.419C222.844 163.539 221.41 166.874 220.389 170.304C219.364 173.752 218.726 177.319 218.464 180.906C218.293 183.255 218.096 185.889 218.581 188.291C216.363 192.317 215.176 197.264 217.382 201.518C219.645 205.882 225.034 207.367 229.582 206.497C234.355 205.585 238.748 202.436 242.063 198.991Z" fill="#663829"/>
<path d="M199.099 197.019C198.531 195.895 197.751 194.941 196.934 193.946C195.994 192.802 195.014 191.691 193.996 190.615C191.96 188.463 189.775 186.453 187.464 184.599C182.811 180.865 177.683 177.785 172.193 175.447C169.106 174.132 165.797 172.861 162.437 172.525C161.403 172.422 160.947 174.088 161.897 174.518C164.468 175.681 167.184 176.52 169.785 177.625C172.408 178.739 174.954 180.043 177.403 181.498C182.239 184.371 186.713 187.847 190.659 191.856C191.775 192.99 192.849 194.165 193.877 195.378C194.833 196.506 195.672 197.787 196.763 198.786C196.848 199.277 197.182 199.74 197.806 199.98C199.481 200.625 200.808 201.407 201.328 203.26C201.815 204.994 201.198 206.824 200.191 208.252C197.853 211.568 193.351 212.72 189.559 213.305C182.194 214.44 174.442 212.799 167.997 209.121C164.292 207.007 160.89 204.308 158.049 201.121C157.532 200.542 156.559 201.294 156.974 201.951C161.705 209.438 169.726 214.268 178.337 215.976C182.711 216.843 187.208 216.932 191.597 216.116C196.233 215.254 201.22 213.309 203.577 208.93C204.837 206.588 205.187 203.826 204.122 201.347C203.285 199.399 201.338 197.287 199.099 197.019Z" fill="#663829"/>
<path d="M260.235 250.981C266.732 235.554 269.795 218.755 269.031 202.019C268.284 185.661 263.863 169.635 256.237 155.151C252.208 147.498 247.337 140.051 241.264 133.848C241.934 132.902 242.536 131.893 243.166 130.949C244.358 129.162 245.525 127.357 246.639 125.519C248.932 121.733 250.986 117.8 252.584 113.667C255.503 106.121 256.767 97.5452 254.687 89.6272C256.106 89.5652 257.519 89.4791 258.933 89.3291C259.307 89.2891 259.683 89.2542 260.057 89.2102C260.507 89.1562 260.928 89.0322 261.373 88.9552C262.178 88.8142 263.026 88.7732 263.712 88.2962C264.506 87.7432 264.338 86.6681 263.455 86.3291C262.698 86.0391 261.886 86.1942 261.094 86.2492C260.613 86.2822 260.146 86.2672 259.667 86.3322C259.294 86.3832 258.921 86.4342 258.548 86.4852C257.03 86.6932 255.531 86.9691 254.031 87.2751C254.006 87.2801 253.985 87.2901 253.961 87.2971C253.71 86.5851 253.442 85.8822 253.143 85.1952C253.147 85.1932 253.152 85.1922 253.155 85.1902C253.756 84.9202 254.318 84.5412 254.85 84.1542C255.436 83.7292 255.99 83.2532 256.518 82.7572C256.74 82.5492 256.967 82.3392 257.165 82.1082C257.267 81.9892 257.352 81.8681 257.441 81.7431C257.441 81.7431 257.486 81.6722 257.52 81.6212C257.508 81.6362 257.496 81.6502 257.485 81.6652C257.499 81.6472 257.513 81.6292 257.527 81.6102C257.553 81.5692 257.562 81.5562 257.53 81.6062C257.605 81.5092 257.68 81.4121 257.755 81.3141C257.809 81.2431 257.863 81.1732 257.916 81.1012C258.402 80.4502 259.026 79.6052 258.511 78.7792C258.229 78.3262 257.704 78.2722 257.235 78.4192C256.747 78.5722 256.477 78.9062 256.146 79.2642C255.706 79.7412 255.221 80.1642 254.771 80.6302C254.322 81.0962 253.845 81.5322 253.355 81.9552C252.939 82.3132 252.508 82.6582 252.09 83.0142C249.236 77.5522 244.987 72.8602 240.496 68.6652C234.145 62.7332 227.32 57.2762 220.257 52.2182C219.141 51.4192 218.015 50.6332 216.884 49.8562C217.11 49.6052 217.261 49.2662 217.266 48.8252C217.359 41.0822 216.944 33.2961 216.552 25.5641C216.357 21.7241 216.127 17.8861 215.861 14.0511C215.639 10.8561 215.706 7.35116 214.406 4.36316C211.423 -2.49584 202.879 0.130152 197.853 2.82515C191.851 6.04415 186.593 10.9312 181.739 15.6492C178.961 18.3502 176.33 21.2012 173.825 24.1572C171.401 27.0182 168.888 29.9872 167.023 33.2582C166.481 33.2582 165.938 33.2512 165.396 33.2582C161.215 33.3162 157.038 33.6042 152.889 34.1162C144.509 35.1492 136.252 37.0372 128.281 39.8312C126.099 40.5962 123.953 41.4682 121.827 42.3782C119.84 43.2292 117.671 44.0382 115.953 45.3872C115.204 44.8372 114.448 44.2962 113.675 43.7782C111.091 42.0482 108.39 40.4922 105.598 39.1212C100.046 36.3962 94.1552 34.3682 88.0882 33.1582C85.4502 32.6322 82.5822 32.2972 80.0512 33.4332C77.2732 34.6812 76.1822 37.5322 76.1562 40.4172C76.1262 43.7282 76.7092 47.1132 77.0682 50.3992C77.4612 53.9962 77.8782 57.5922 78.3442 61.1802C78.8542 65.1072 79.4122 69.0292 80.0022 72.9442C80.3072 74.9672 80.6022 76.9952 80.9482 79.0122C81.2782 80.9292 81.4932 83.0562 82.4662 84.7592C82.5492 84.9052 82.6752 85.0092 82.8172 85.0842C80.8302 89.3632 79.1102 93.7662 77.6832 98.2632C75.4492 105.303 73.8852 112.739 74.5982 120.138C74.4992 119.83 74.2682 119.58 73.9262 119.455C73.3092 119.23 72.6922 119.004 72.0752 118.779C71.6812 118.635 71.3182 118.489 70.8912 118.473C70.3842 118.454 69.7762 118.553 69.6142 119.122C69.4482 119.71 69.9462 120.108 70.3692 120.401C70.6982 120.629 71.1282 120.722 71.5082 120.837C72.1352 121.026 72.7622 121.216 73.3882 121.405C73.8942 121.558 74.5122 121.222 74.6312 120.699C74.6412 120.656 74.6322 120.618 74.6372 120.576C74.6902 121.063 74.7522 121.549 74.8252 122.035C75.0142 123.289 75.2972 124.512 75.6502 125.705C75.2002 125.664 74.7482 125.64 74.2952 125.652C73.6012 125.671 72.8822 125.72 72.2092 125.894C72.0882 125.925 71.9642 125.955 71.8472 125.995C71.6372 126.054 71.4542 126.16 71.2992 126.314C71.2062 126.394 71.1992 126.412 71.2782 126.369C71.1342 126.502 70.9342 126.581 70.7882 126.718C70.6182 126.877 70.5392 127.024 70.4512 127.238C70.3142 127.571 70.5482 127.938 70.8092 128.119C71.0562 128.29 71.3742 128.313 71.6792 128.326C71.7342 128.349 71.7902 128.374 71.8472 128.388C72.0672 128.447 72.2872 128.447 72.5072 128.388C72.4792 128.392 72.4512 128.396 72.4232 128.4C72.7442 128.363 73.0652 128.322 73.3842 128.273C73.4142 128.268 73.5492 128.25 73.6002 128.243C73.7062 128.23 73.8122 128.218 73.9182 128.208C74.1902 128.182 74.4622 128.165 74.7352 128.157C75.2362 128.141 75.7422 128.148 76.2422 128.176C76.3352 128.181 76.4282 128.193 76.5212 128.2C76.7342 128.728 76.9602 129.25 77.2032 129.764C76.9082 130.037 76.6312 130.332 76.3612 130.626C75.7642 131.276 75.1682 131.926 74.5712 132.575C73.9902 133.207 73.4322 133.86 72.8662 134.505C72.5482 134.868 72.2362 135.202 72.0292 135.641C71.8222 136.08 71.3992 136.545 71.4672 137.055C71.5282 137.506 71.8002 137.881 72.3002 137.887C72.8362 137.894 73.1382 137.531 73.5522 137.259C73.7602 137.122 73.9762 137.009 74.1612 136.838C74.3202 136.692 74.4552 136.502 74.5982 136.34C75.1802 135.676 75.7722 135.019 76.3392 134.342C76.8922 133.683 77.4442 133.023 77.9972 132.364C78.1122 132.227 78.2332 132.086 78.3552 131.942C80.3232 135.325 82.9522 138.333 86.0392 140.857C86.7332 141.425 87.4472 141.959 88.1702 142.478C84.9482 147.147 82.5692 152.411 80.6492 157.731C78.6042 163.4 77.2042 169.294 76.1852 175.229C75.5052 179.19 75.0042 183.18 74.6132 187.18C74.3712 185.634 74.0052 184.1 73.4832 182.584C71.9822 178.223 69.5862 174.234 66.4302 170.869C59.8672 163.871 50.2562 160.429 40.7332 161.199C39.7192 161.281 38.6842 161.404 37.6462 161.575C35.9142 161.056 34.0072 161.038 32.2222 161.086C30.1512 161.141 28.0662 161.451 26.0492 161.911C22.0172 162.831 18.1162 164.565 14.6992 166.89C7.75923 171.612 2.88023 178.9 0.972232 187.064C-0.0417685 191.404 -0.69377 196.664 1.26623 200.83C1.17923 201.141 1.24023 201.486 1.52223 201.762C2.53823 202.758 4.16423 202.826 5.50423 202.991C6.90123 203.163 8.30223 203.231 9.70823 203.198C12.4942 203.132 15.2902 202.725 17.9822 202.007C19.0992 201.709 20.1992 201.34 21.2862 200.931C22.0502 201.245 22.8492 201.486 23.6032 201.689C25.3352 202.156 27.1752 202.409 28.9662 202.483C32.4512 202.627 36.0262 202.065 39.2852 200.82C39.3622 200.791 39.4372 200.757 39.5142 200.727C39.6062 200.7 39.6972 200.664 39.7872 200.616C40.3802 200.376 40.9652 200.122 41.5372 199.843C42.0292 199.818 42.4312 199.91 42.9512 200.114C43.4182 200.298 43.9162 200.676 44.3382 201.133C44.8082 201.644 45.1622 202.268 45.4542 202.898C45.6142 203.459 45.7792 204.018 45.9712 204.573C46.2452 205.366 46.5262 206.157 46.8022 206.95C46.8942 207.309 46.9852 207.668 47.0752 208.025C47.5662 209.977 48.2462 211.855 48.6272 213.834C48.7112 214.269 49.0852 214.46 49.4692 214.465C50.3502 216.87 51.2742 219.258 52.3362 221.591C55.4082 228.34 59.9132 234.339 66.5602 237.888C70.2522 239.859 74.2812 240.98 78.4552 241.244C78.9262 241.274 79.3692 241.031 79.6792 240.672C80.6972 242.63 81.8612 244.531 83.1952 246.359C89.6332 255.176 98.7232 261.857 108.649 266.272C120.559 271.569 133.441 273.895 146.321 275.335C147.021 275.413 147.721 275.481 148.421 275.554C148.485 275.686 148.585 275.813 148.73 275.928C157.352 282.772 169.527 284.741 180.21 283.07C185.224 282.286 190.755 280.743 194.765 277.505C196.517 276.09 197.857 274.203 198.32 272.011C200.725 272.428 203.293 272.307 205.659 272.05C208.786 271.71 211.869 271.058 214.848 270.043C217.407 269.171 219.884 268.025 222.226 266.666C227.626 268.217 233.256 268.985 238.865 269.222C241.691 269.342 244.523 269.33 247.347 269.186C249.97 269.052 252.653 268.883 255.203 268.215C259.621 267.057 263.844 263.852 264.3 259.011C264.614 255.718 262.768 252.888 260.235 250.981ZM60.7102 229.27C56.0232 223.939 53.6652 217.032 51.1922 210.503C50.6542 209.08 50.1062 207.662 49.5612 206.242C49.1582 204.22 48.7332 202.176 47.7032 200.364C47.0892 199.284 46.2602 198.336 45.2482 197.657C46.0322 197.108 46.7932 196.522 47.5222 195.891C48.7452 194.831 49.8392 193.656 50.8312 192.377C51.6892 191.271 52.9762 189.545 52.9262 188.098C52.9002 187.32 52.0852 186.84 51.3962 187.22C50.7412 187.581 50.4012 188.223 49.9402 188.787C49.4702 189.364 48.9712 189.92 48.4952 190.494C47.6062 191.567 46.6302 192.577 45.5912 193.506C44.2802 194.679 42.8212 195.718 41.2692 196.577C39.9902 196.645 38.7482 197.103 37.9192 198.084C35.0432 199.108 32.0242 199.562 28.9702 199.462C27.7622 199.422 26.5772 199.294 25.3952 199.094C28.0802 197.678 30.5912 195.933 32.8132 193.886C33.9712 192.819 35.0332 191.633 35.9652 190.364C36.4062 189.763 36.7712 189.104 37.1252 188.448C37.4902 187.772 37.9792 187.073 37.7312 186.279C37.6032 185.866 37.2362 185.712 36.8332 185.769C36.2582 185.85 35.9292 186.268 35.5642 186.683C35.1042 187.205 34.6152 187.699 34.1252 188.193C33.2102 189.118 32.3512 190.095 31.4022 190.988C29.5162 192.764 27.4932 194.34 25.2582 195.656C23.7412 196.549 22.1442 197.32 20.4992 197.971C20.1912 197.919 19.8822 197.876 19.5732 197.857C19.0832 197.826 18.7462 198.208 18.6652 198.637C16.1042 199.484 13.4442 200.03 10.7632 200.212C9.31323 200.31 7.85723 200.306 6.40623 200.226C5.32223 200.166 4.03623 199.82 2.88923 199.905C3.17623 196.304 2.83623 192.713 3.52123 189.126C4.23523 185.385 5.58023 181.791 7.54623 178.528C11.5102 171.947 17.8782 167.21 25.2022 164.985C26.8732 164.477 28.5682 164.102 30.2912 163.853C28.6622 164.668 27.1632 165.698 25.9012 167.005C25.3592 167.566 25.8942 168.68 26.7072 168.389C30.8532 166.906 34.8652 165.159 39.2742 164.579C43.6692 164.001 48.1852 164.396 52.4082 165.736C59.6342 168.029 65.4352 173.251 69.0072 179.828C68.6202 179.886 68.2842 180.194 68.2642 180.664C68.1992 182.256 68.7662 183.786 69.2562 185.279C69.7632 186.824 70.2452 188.38 70.6732 189.948C71.5422 193.13 72.1842 196.382 72.5892 199.656C73.0172 203.113 73.1582 206.618 73.1152 210.123C73.0042 211.202 72.9582 212.295 72.9102 213.375C72.8652 214.403 72.8522 215.431 72.8542 216.459C72.7892 217.406 72.7182 218.351 72.6352 219.293C72.6082 219.605 72.7432 219.827 72.9422 219.975C72.9842 220.782 73.0362 221.589 73.1042 222.394C73.5422 227.598 74.5492 232.734 76.1092 237.712C70.2022 236.766 64.6722 233.776 60.7102 229.27ZM253.461 265.299C248.888 266.293 243.927 266.227 239.273 266.075C234.583 265.922 229.933 265.401 225.298 264.717C225.956 264.251 226.601 263.768 227.235 263.268C227.801 262.821 228.366 262.367 228.897 261.88C229.633 261.205 229.864 260.66 229.994 259.69C230.074 259.094 229.394 258.48 228.827 258.523C227.866 258.596 227.423 258.794 226.674 259.422C226.163 259.85 225.667 260.295 225.147 260.713C224.046 261.598 222.879 262.405 221.683 263.154C219.209 264.701 216.574 265.965 213.826 266.944C211.137 267.901 208.335 268.602 205.501 268.956C203.144 269.25 200.777 269.213 198.417 269.333C198.145 267.412 197.179 265.614 195.878 264.175C193.783 261.858 190.896 260.635 187.844 260.249C186.045 260.022 184.238 260.081 182.441 260.29C180.629 260.501 178.729 260.668 177.066 261.437C175.642 262.096 176.486 264.09 177.806 264.171C179.228 264.258 180.643 263.836 182.052 263.649C183.461 263.462 184.893 263.364 186.314 263.425C188.603 263.524 190.894 264.138 192.661 265.656C194.129 266.917 195.293 268.703 195.191 270.704C195.091 272.664 193.69 274.272 192.166 275.367C188.523 277.984 183.705 279.207 179.338 279.893C174.679 280.625 169.798 280.517 165.165 279.653C160.678 278.817 156.458 277.189 152.387 275.193C152.614 274.893 152.757 274.53 152.757 274.176C152.757 273.204 151.992 272.601 151.094 272.513C128.37 270.291 103.597 265.537 88.0312 247.246C84.6332 243.253 81.8732 238.673 80.0742 233.742C77.9772 227.997 77.0502 221.92 76.7342 215.833C76.4172 209.741 76.6502 203.627 76.9702 197.54C77.2762 191.719 77.7302 185.895 78.5362 180.119C79.4372 173.662 80.7662 167.267 82.7272 161.046C84.6232 155.033 87.2262 149.412 90.3112 143.936C96.6352 147.963 103.812 150.489 110.894 152.936C112.913 153.634 113.78 150.436 111.775 149.742C98.2682 145.066 81.9702 138.899 78.3882 123.279C76.6852 115.852 78.1442 108.011 80.2592 100.826C82.3842 93.6062 85.2682 86.6161 88.8122 79.9781C90.7972 76.2591 92.9962 72.6552 95.3822 69.1802C97.7912 65.6712 100.508 62.3822 102.923 58.8842C103.58 57.9332 102.183 57.0112 101.397 57.7072C98.4742 60.2942 96.0312 63.4302 93.7332 66.5722C91.3832 69.7852 89.2142 73.1272 87.2292 76.5782C86.1942 78.3782 85.2132 80.2081 84.2822 82.0641C84.2192 81.3251 84.1062 80.5861 84.0092 79.8421C83.7802 78.0871 83.5102 76.3382 83.2552 74.5872C82.7842 71.3432 82.3392 68.0951 81.9222 64.8441C81.7202 63.2681 81.5352 61.6902 81.3442 60.1122C81.4612 59.9392 81.5652 59.7532 81.6552 59.5542C82.0042 59.3602 82.2522 58.9782 82.1232 58.5282C82.1022 58.4562 82.0912 58.3792 82.0722 58.3062C82.2122 57.7262 82.3072 57.1452 82.3942 56.6632C82.7322 54.7952 82.9072 52.9012 83.3062 51.0432C83.9332 48.1302 85.0652 44.9132 87.9302 43.5152C91.0322 42.0012 94.9832 42.9852 98.2102 43.5022C102.299 44.1572 106.378 44.8742 110.447 45.6472C110.455 45.6492 110.463 45.6482 110.471 45.6492C110.59 45.7252 110.712 45.7952 110.83 45.8722C112.208 46.7672 113.556 47.7092 114.87 48.6952C116.169 49.6712 117.347 50.9022 118.846 51.5462C120.012 52.0472 121.515 50.9562 120.728 49.6642C120.082 48.6042 119.166 47.8332 118.203 47.0902C119.591 46.6062 120.935 45.9132 122.273 45.3612C124.176 44.5782 126.1 43.8532 128.04 43.1672C131.867 41.8152 135.739 40.6182 139.682 39.6482C147.614 37.6972 155.736 36.5992 163.901 36.3812C166.147 36.3212 168.394 36.3272 170.639 36.4002C172.931 36.4752 175.412 36.9242 177.663 36.3542C178.537 36.1332 178.83 34.7132 177.931 34.3042C176.01 33.4312 173.837 33.4392 171.762 33.3532C171.252 33.3322 170.743 33.3252 170.233 33.3112C171.819 31.4272 173.314 29.4582 174.908 27.5842C176.979 25.1502 179.14 22.7922 181.385 20.5172C181.945 19.9502 182.516 19.3862 183.085 18.8222C183.49 18.7012 183.895 18.5812 184.3 18.4572C185.434 18.1112 186.561 17.7462 187.706 17.4382C190.157 16.7772 192.647 16.3341 195.178 16.1201C199.042 15.7931 202.906 16.0282 206.68 16.8172C210.07 20.2952 212.083 25.0692 213.028 29.8772C213.099 30.2402 213.29 30.5002 213.539 30.6742C213.74 36.4322 213.848 42.1922 214.057 47.9512C212.064 46.6292 210.048 45.3422 208.008 44.0912C203.762 41.4892 199.428 38.8872 194.727 37.2012C193.685 36.8272 193.267 38.2942 194.028 38.8582C197.469 41.4022 201.21 43.5102 204.843 45.7692C208.421 47.9942 211.937 50.3212 215.391 52.7342C222.336 57.5872 229.004 62.8451 235.345 68.4651C241.029 73.5031 246.647 78.9972 249.881 85.9882C253.379 93.5512 252.866 102.187 250.379 109.966C248.928 114.505 246.772 118.779 244.352 122.872C243.162 124.884 241.903 126.854 240.61 128.801C239.265 130.828 237.588 132.76 236.874 135.103C236.466 136.44 238.082 137.056 238.999 136.34C239.26 136.136 239.504 135.913 239.739 135.682C244.198 141.536 248.5 147.485 252.073 153.937C255.831 160.722 258.863 167.89 261.111 175.312C265.843 190.936 267.079 207.538 264.579 223.681C263.217 232.472 260.804 241.125 257.373 249.337C257.353 249.329 257.334 249.319 257.314 249.311C254.803 248.266 252.055 248.086 249.364 248.272C246.306 248.483 243.015 248.826 240.182 250.049C239.299 250.43 239.555 251.914 240.45 252.099C242.846 252.594 245.218 252.033 247.604 251.755C249.806 251.499 252.137 251.323 254.319 251.819C257.294 252.496 260.854 254.749 261.021 258.133C261.224 262.258 256.907 264.55 253.461 265.299Z" fill="#663829"/>
<path d="M188.561 152.375C188.982 152.375 189.189 151.822 189.312 151.501C189.446 151.149 189.451 150.7 189.459 150.325C189.468 149.931 189.466 149.531 189.411 149.142C189.388 148.978 189.378 148.803 189.337 148.642C189.272 148.387 189.147 148.228 188.953 148.109C188.951 148.1 188.949 148.09 188.947 148.081C188.887 147.833 188.541 147.858 188.469 148.081C188.466 148.09 188.463 148.1 188.46 148.109C188.102 148.313 188.012 148.699 187.921 149.106C187.834 149.498 187.813 149.924 187.791 150.325C187.769 150.707 187.754 151.132 187.864 151.501C187.956 151.82 188.148 152.375 188.561 152.375Z" fill="#663829"/>
<path d="M192.485 151.941C192.611 152.027 192.82 152.027 192.946 151.941C193.113 151.828 193.283 151.646 193.338 151.446C193.387 151.268 193.379 151.049 193.394 150.865C193.405 150.729 193.416 150.592 193.427 150.456C193.44 150.299 193.413 150.136 193.4 149.979C193.352 149.365 193.304 148.752 193.256 148.138C193.234 147.856 193.023 147.583 192.715 147.597C192.403 147.611 192.198 147.835 192.174 148.138C192.126 148.752 192.078 149.365 192.03 149.979C192.019 150.126 191.997 150.276 192.001 150.422C192.005 150.569 192.025 150.718 192.037 150.865C192.052 151.05 192.044 151.268 192.093 151.446C192.148 151.649 192.316 151.827 192.485 151.941Z" fill="#663829"/>
<path d="M197.555 150.103C197.692 150.254 197.844 150.393 197.988 150.537C198.25 150.799 198.732 150.535 198.621 150.169C198.562 149.975 198.51 149.778 198.443 149.587C198.364 149.361 198.228 149.148 198.117 148.936C197.92 148.563 197.724 148.19 197.528 147.816C197.372 147.52 196.935 147.406 196.654 147.587C196.379 147.764 196.224 148.166 196.425 148.461C196.663 148.81 196.9 149.159 197.137 149.508C197.271 149.705 197.395 149.926 197.555 150.103Z" fill="#663829"/>
</svg>
